<?xml version="1.0" encoding="UTF-8" standalone="no"?>
<!-- Created with Inkscape (http://www.inkscape.org/) -->
<svg xmlns:dc="http://purl.org/dc/elements/1.1/" xmlns:cc="http://creativecommons.org/ns#" xmlns:rdf="http://www.w3.org/1999/02/22-rdf-syntax-ns#" xmlns:svg="http://www.w3.org/2000/svg" xmlns="http://www.w3.org/2000/svg" xmlns:sodipodi="http://sodipodi.sourceforge.net/DTD/sodipodi-0.dtd" xmlns:inkscape="http://www.inkscape.org/namespaces/inkscape" id="svg2" version="1.1" inkscape:version="0.48.2 r9819" width="250" height="198" sodipodi:docname="NIOC.svg">
  <metadata id="metadata8">
    <rdf:RDF>
      <cc:Work rdf:about="">
        <dc:format>image/svg+xml</dc:format>
        <dc:type rdf:resource="http://purl.org/dc/dcmitype/StillImage"/>
        <dc:title/>
      </cc:Work>
    </rdf:RDF>
  </metadata>
  <defs id="defs6"/>
  <sodipodi:namedview pagecolor="#ffffff" bordercolor="#666666" borderopacity="1" objecttolerance="10" gridtolerance="10" guidetolerance="10" inkscape:pageopacity="0" inkscape:pageshadow="2" inkscape:window-width="1366" inkscape:window-height="744" id="namedview4" showgrid="true" inkscape:zoom="2.8284271" inkscape:cx="120.9896" inkscape:cy="117.24188" inkscape:window-x="0" inkscape:window-y="24" inkscape:window-maximized="1" inkscape:current-layer="svg2" inkscape:snap-bbox="true">
    <inkscape:grid type="xygrid" id="grid4244"/>
  </sodipodi:namedview>
  <path style="fill:#000000" d="m 206.45929,193.24278 c -5.89185,-1.83982 -10.41321,-5.52999 -13.19085,-10.76588 l -2.34517,-4.4207 -3.59289,1.28426 c -1.97608,0.70634 -7.46064,1.30401 -12.18789,1.32815 -9.48313,0.0484 -11.90499,1.32306 -11.90499,6.26564 0,3.87889 -2.52769,4.12827 -5.54136,0.54672 -3.14457,-3.7371 -2.80265,-7.75173 0.9992,-11.73229 2.39549,-2.50809 2.40521,-2.59747 0.87811,-8.06907 -1.38435,-4.9601 -1.3868,-5.90966 -0.0236,-9.17222 1.77189,-4.24072 5.02378,-6.65062 10.08189,-7.47144 l 3.60576,-0.58513 0,5.05826 c 0,4.27345 0.40881,5.37983 2.63486,7.13084 8.09353,6.36637 18.37625,-3.0578 18.35956,-16.82664 -0.0168,-13.84679 -8.83997,-23.08738 -21.99442,-23.03493 -13.62429,0.0543 -19.08364,5.25791 -22.39431,21.34515 -0.89542,4.35105 -2.05587,8.42651 -2.57878,9.05658 -0.62736,0.75591 -0.11335,2.79963 1.51117,6.00847 3.40777,6.73119 3.3957,15.25741 -0.0313,22.13455 -6.54316,13.13042 -24.13716,16.38935 -35.58406,6.59123 -5.47025,-4.68233 -7.87877,-10.09373 -7.87877,-17.70183 0,-5.9054 2.4555,-13.45455 4.85962,-14.94039 0.78214,-0.48339 0.69269,-1.10623 -0.30168,-2.10061 -0.77741,-0.77741 -1.95678,-4.68622 -2.62082,-8.68624 -1.41396,-8.51733 -3.22627,-13.32061 -6.27877,-16.64103 -3.40211,-3.70072 -9.55132,-6.08523 -15.75593,-6.10977 -14.1298,-0.0559 -24.39783,11.97851 -22.49018,26.35906 0.81442,6.13945 2.58442,9.63389 6.58465,12.99986 3.34583,2.81533 6.78381,3.307 10.27493,1.46942 3.09699,-1.63013 3.65161,-2.78377 3.66895,-7.63168 0.0179,-5.00415 1.36778,-5.91746 6.32702,-4.28076 7.43788,2.45472 10.32727,9.48201 7.23159,17.58793 l -1.72138,4.50736 3.08904,3.51822 c 3.82637,4.35799 3.8781,6.53397 0.25182,10.59248 -3.10779,3.47819 -5.16281,3.19842 -5.16281,-0.70287 0,-4.7696 -3.12652,-6.43293 -12.25,-6.51706 -4.5375,-0.0418 -9.81615,-0.64151 -11.73032,-1.33259 -3.46683,-1.25165 -3.49066,-1.24023 -6.14483,2.94497 -5.40456,8.5221 -12.89778,11.98195 -24.35732,11.24652 -9.41235,-0.60405 -14.85203,-3.52917 -18.97656,-10.2044 -2.59653,-4.20228 -3.03604,-5.88303 -3.00727,-11.5 0.0375,-7.313 1.73375,-11.51716 6.80098,-16.85582 3.18614,-3.35681 10.49912,-6.2226 15.87894,-6.2226 10.3672,0 17.02105,10.84416 12.2797,20.01291 -1.94718,3.76543 -8.02623,5.60275 -13.73945,4.15258 -3.92001,-0.995 -3.927,-0.99144 -3.26076,1.66309 1.03071,4.10667 2.41599,5.17142 6.72821,5.17142 8.82592,0 14.8347,-5.63039 15.57831,-14.5973 0.56356,-6.79588 -2.42841,-13.39212 -7.49478,-16.52331 l -3.55325,-2.19603 0.51336,-6.39538 c 1.84567,-22.99321 23.72073,-36.76121 48.21157,-30.34398 8.48965,2.2245 12.95961,4.69305 18.40049,10.16173 4.11114,4.13214 9.11971,14.3721 9.85428,20.14697 0.692,5.4401 1.71015,7.36797 4.24068,8.02972 3.1269,0.8177 5.75073,-2.22478 6.93855,-8.04564 3.39309,-16.62767 14.65942,-27.19119 32.37729,-30.35755 12.13657,-2.16893 27.76693,2.21069 34.89047,9.77628 3.58979,3.81255 7.35919,11.66082 8.71415,18.14371 1.78038,8.51839 1.52804,9.65675 -2.77129,12.50191 -6.90418,4.56897 -9.93018,14.43348 -6.75712,22.02768 3.74487,8.96274 17.32342,13.04211 20.46453,6.14811 0.64429,-1.41406 1.17238,-2.88735 1.17354,-3.27397 0.001,-0.38662 -2.92023,-0.55221 -6.49195,-0.36798 -6.09274,0.31427 -6.67994,0.14908 -9.5021,-2.67308 -2.37214,-2.37213 -3.00805,-3.88041 -3.00805,-7.13463 0,-8.60565 5.61583,-14.01691 14.55366,-14.02352 16.48074,-0.0122 27.33188,17.79957 19.91323,32.68686 -5.13609,10.30679 -18.3126,14.87804 -31.2451,10.83968 z m 20.38668,-3.5109 c 7.69995,-3.33921 12.2083,-12.41257 10.33064,-20.79109 -2.13941,-9.54646 -7.00229,-14.50813 -16.08684,-16.41363 -4.66946,-0.97943 -5.89907,-0.88628 -9.24218,0.70012 -6.95463,3.30019 -8.4367,12.11665 -2.78426,16.56286 2.3272,1.83058 3.47947,2.01557 8.92322,1.43259 l 6.25095,-0.66942 0,3.44474 c 0,2.01381 -0.89575,4.58349 -2.15638,6.18613 -2.01459,2.56113 -2.56563,2.71534 -8.37996,2.34511 -10.65705,-0.67859 -16.46366,-7.11525 -16.46366,-18.25004 0,-7.43201 1.83391,-11.49247 7.22643,-16.00006 l 4.44717,-3.71737 -0.88399,-5.63713 c -2.44434,-15.58738 -12.31387,-25.36327 -28.46095,-28.19095 -7.21296,-1.26313 -17.50612,0.43398 -25.18868,4.15304 -8.82058,4.26997 -16.02829,14.56973 -18.1363,25.91663 -1.12607,6.06132 -3.6703,8.90909 -7.95948,8.90909 -3.87991,0 -6.31243,-3.22358 -7.74978,-10.27003 -2.41448,-11.83676 -8.78874,-20.88054 -18.04559,-25.60303 -6.37562,-3.2526 -16.89628,-4.9809 -24.22178,-3.97907 -16.24373,2.22147 -25.98645,11.35767 -29.20571,27.38755 l -1.09827,5.46868 4.46457,3.92987 c 11.8356,10.41811 8.77804,29.48024 -5.45837,34.0298 -4.95163,1.5824 -11.29689,0.49163 -13.23478,-2.27511 -0.82197,-1.17352 -1.49449,-3.84608 -1.49449,-5.93902 l 0,-3.80534 6.46953,0.66282 c 7.88692,0.80804 11.09922,-0.79145 12.07907,-6.01449 1.99324,-10.6249 -11.00321,-16.61853 -22.02687,-10.15823 -5.87726,3.4443 -8.64241,8.19986 -9.26296,15.93061 -0.53273,6.63673 1.3863,12.25481 5.38482,15.7644 10.87499,9.54522 29.9977,6.56294 36.49904,-5.69219 2.6028,-4.90633 3.1889,-5.0734 10.2663,-2.9264 2.69991,0.81905 8.17241,1.48918 12.16111,1.48918 6.87053,0 7.38841,0.16191 9.84107,3.07673 1.42389,1.69219 2.58889,3.51875 2.58889,4.05901 0,0.54026 0.45,0.70418 1,0.36426 1.85724,-1.14784 1.01708,-5.57967 -1.5,-7.91242 -2.85159,-2.64277 -3.09126,-5.30706 -1.01378,-11.26963 1.84273,-5.28881 0.50708,-9.75293 -3.54498,-11.84833 -4.15571,-2.14901 -4.61973,-1.9033 -5.24774,2.77882 -0.79752,5.94598 -4.24352,8.75156 -10.74926,8.75156 -4.42135,0 -5.3604,-0.41616 -8.87931,-3.93507 -4.45838,-4.45838 -6.05128,-9.00487 -6.05935,-17.29469 -0.01,-10.28603 5.12359,-18.98648 13.49442,-22.87039 5.49161,-2.54801 17.49116,-2.54112 23.11609,0.0133 7.25288,3.29366 11.31587,10.69043 12.91866,23.51867 0.49469,3.95938 1.28719,6.06457 2.58908,6.87761 2.48792,1.55374 2.3658,2.88199 -0.51371,5.58715 -4.85827,4.56411 -5.7957,14.69542 -2.08356,22.51818 3.6057,7.59845 13.92071,12.31382 22.79602,10.4209 6.71369,-1.43189 10.79827,-4.5893 13.92742,-10.76598 4.10147,-8.09598 3.40154,-15.98288 -1.99678,-22.49974 -2.41206,-2.91184 -2.41471,-2.93987 -0.42656,-4.5 1.38702,-1.08842 2.52114,-4.17685 3.69784,-10.06991 1.98275,-9.92992 3.12137,-12.40269 7.64018,-16.59243 7.92678,-7.34954 22.51437,-8.04733 31.53468,-1.50846 2.09035,1.51531 5.1372,5.19541 6.77078,8.178 2.55722,4.66899 2.96698,6.46556 2.94747,12.92289 -0.0172,5.70312 -0.53863,8.48809 -2.17628,11.62421 -3.12444,5.98331 -7.55797,9.37579 -12.25296,9.37579 -7.9566,0 -11.26549,-3.00391 -11.16703,-10.1378 l 0.053,-3.83651 -3.58466,1.49776 c -6.45787,2.69827 -6.89203,4.3095 -4.70935,17.47684 0.47998,2.8955 0.13441,3.91912 -2.00003,5.92432 -2.54091,2.38706 -3.4425,6.42445 -1.67815,7.51489 0.49616,0.30664 1.83098,-1.01681 2.96628,-2.94099 l 2.06412,-3.49854 7.78372,-0.0239 c 4.28105,-0.0131 9.58373,-0.50016 11.78373,-1.08231 8.82236,-2.33451 9.15963,-2.30896 10.23482,0.77531 4.1393,11.87401 19.46453,17.16533 32.87365,11.35024 z M 122.6577,180.56795 c -2.77419,-1.34613 -5.42108,-5.99331 -5.41646,-9.50974 0.006,-4.34097 3.3351,-8.9724 7.41887,-10.32017 7.33835,-2.42187 14.56486,2.94556 14.57365,10.82446 0.006,4.99761 -5.45981,10.17349 -10.64626,10.08232 -2.1175,-0.0372 -4.78591,-0.52182 -5.9298,-1.07687 z m 11.1569,-2.91944 c 2.66747,-2.2138 3.35357,-6.56631 1.59,-10.08672 -3.18102,-6.34992 -11.15318,-6.34992 -14.3342,0 -2.08472,4.16149 -0.85331,8.50956 3.02316,10.67473 2.75091,1.53649 7.50789,1.24875 9.72104,-0.58801 z m -8.05767,-49.16641 c -3.17831,-9.71714 -11.49909,-20.26181 -16.51943,-20.93458 -2.00725,-0.26899 -2.56205,-0.9794 -2.8148,-3.60432 l -0.3148,-3.26931 22.3148,0.2693 22.3148,0.26931 0.31336,3.25 c 0.27888,2.89241 0.0351,3.25 -2.21521,3.25 -4.9614,0 -14.9377,11.71435 -17.62684,20.69774 -1.81796,6.07312 -3.48179,6.09505 -5.45188,0.0719 z m 10.62238,-14.45342 c 4.09606,-5.30924 8.18496,-8.31618 11.30853,-8.31618 0.85231,0 1.54966,-0.69019 1.54966,-1.53377 0,-1.33214 -2.70251,-1.51947 -20.55835,-1.42503 -15.25937,0.0807 -20.45868,0.41159 -20.17167,1.28376 0.21267,0.64627 1.31503,1.31243 2.44969,1.48035 3.25453,0.48165 11.12984,8.95361 14.4654,15.56132 l 3.04369,6.0295 1.85807,-3.81998 c 1.02193,-2.10099 3.74668,-6.26797 6.05498,-9.25997 z M 97.9875,93.030249 98,84 l 32,0 32,0 -0.2625,5.2125 0,4 -31,0.141073 c 0.2625,-0.0012 -32.75,-0.323324 -32.75,-0.323324 z M 159,89 l 0,-3 -29,0 c 0,0 -29,-0.230017 -29,0 l 0,6 11.81286,0 c 0,0 30.18714,0 30.58089,0 L 159,92 z M 116.01701,77.978418 102.29653,77.656445 99.64987,74.186503 C 92.63621,64.99111 92.48138,51.200597 99.28455,41.64643 c 2.69252,-3.781307 4.95295,-3.832452 4.95295,-0.112069 0,3.538505 2.73819,11.715968 4.37903,13.077745 0.9672,0.802706 1.13997,-0.927407 0.80087,-8.020004 -0.54805,-11.463021 1.59883,-20.250777 6.06279,-24.816625 4.74797,-4.856345 6.07157,-3.868924 6.38208,4.76113 0.32183,8.944649 2.44235,15.671461 6.37821,20.233315 l 2.97018,3.442578 -2.07192,-4.837152 c -2.92233,-6.822505 -3.6971,-21.321776 -1.52737,-28.583423 1.85715,-6.215479 4.12385,-10.0842442 5.89918,-10.0686426 0.67482,0.00593 3.00078,3.3892086 5.16878,7.5183956 2.16801,4.129187 6.5849,10.761835 9.8153,14.739218 3.2304,3.977382 7.63427,9.397111 9.78638,12.043841 4.71178,5.794699 6.29134,11.088128 5.76681,19.325758 -0.31469,4.942057 -1.11466,7.333035 -4.02026,12.015874 l -3.62739,5.846131 -13.33134,0.04395 c -7.33223,0.02417 -19.50555,-0.100943 -27.05182,-0.278032 z m 39.99733,-3.528375 c 3.36304,-3.579795 6.45393,-11.595662 6.45393,-16.737543 0,-6.244404 -2.93168,-12.544327 -8.90903,-19.144724 -6.55136,-7.234235 -13.71846,-17.377422 -17.31026,-24.49821 l -2.92687,-5.8025674 -2.29231,4.9727504 c -1.93774,4.203605 -2.28743,6.596809 -2.26079,15.472751 0.0271,9.025004 0.4008,11.387216 2.66033,16.815793 2.1879,5.256454 2.38374,6.409842 1.16761,6.876514 -5.37246,2.061607 -14.75001,-19.239519 -12.9179,-29.343029 l 0.48028,-2.648569 -2.99758,2.871865 c -4.61936,4.425626 -6.321,11.742569 -5.61799,24.15692 0.31989,5.648778 0.19365,10.270506 -0.28053,10.270506 -3.56169,0 -7.2961,-5.337827 -8.80066,-12.579349 l -0.75014,-3.610414 -2.36114,4.201092 c -3.50562,6.237409 -3.97269,15.121331 -1.14107,21.703615 3.84844,8.945954 2.19834,8.572444 40.10297,9.077514 15.01813,0.200113 15.65177,0.126554 17.70115,-2.054915 z" inkscape:connector-curvature="0" id="path3003" sodipodi:nodetypes="sscsssssssscssssssssssssssssssssscssssssssssssssssscsssssssssssscsssssscssssscssssscssssssssscsssscsssssssssssssssssssssssssssssssssssccsssscccssccscsccsssssscsscccsssccssssssscssccccccsccccsccsccscsssssssscsssssssscsssssscssssscsssscssss"/>
  <path style="fill:#000000;fill-opacity:1;fill-rule:nonzero;stroke:none" d="m 208.94166,190.92202 c -5.87345,-1.47026 -10.67858,-5.30159 -13.51235,-10.77399 -1.15004,-2.22089 -2.46181,-4.18083 -2.91505,-4.35543 -0.45324,-0.17459 -3.51605,0.2448 -6.80625,0.93199 -3.2902,0.68718 -9.65525,1.42567 -14.14457,1.64108 l -8.16239,0.39165 -0.70455,1.70094 c -0.3875,0.93551 -1.37098,2.32702 -2.18553,3.09224 -1.20879,1.1356 -1.54544,1.2233 -1.83175,0.4772 -0.51085,-1.33126 0.70404,-4.10168 2.8909,-6.59238 1.7945,-2.04383 1.88532,-2.38337 1.5046,-5.62544 -0.22285,-1.89768 -0.57441,-5.59914 -0.78125,-8.22546 -0.37221,-4.72597 -0.35669,-4.79326 1.50674,-6.53396 1.03554,-0.96735 3.02377,-2.20699 4.41828,-2.75477 l 2.53546,-0.99596 0.0136,3.19866 c 0.0202,4.76502 1.73548,8.03321 4.87543,9.28957 3.73348,1.49384 9.08928,1.32285 12.10737,-0.38654 3.15117,-1.78478 6.89847,-6.7108 8.07268,-10.61198 1.20901,-4.01679 1.22234,-14.80355 0.0225,-18.20426 -1.13544,-3.21819 -5.28037,-9.35118 -7.69053,-11.3792 -8.70035,-7.32085 -24.3281,-6.91913 -33.17997,0.85291 -3.30739,2.90393 -5.07836,6.42259 -6.8335,13.5772 -2.59364,10.57262 -2.72375,10.95544 -4.40077,12.94847 l -1.61192,1.91565 2.21471,3.21717 c 3.55448,5.16338 4.28393,7.47578 4.04063,12.80914 -0.17662,3.87194 -0.58872,5.44139 -2.32901,8.86986 -2.58745,5.09743 -5.55933,7.87919 -10.32097,9.66075 -5.51848,2.06473 -11.59703,1.7923 -16.64586,-0.74605 -6.33786,-3.18641 -9.58899,-7.62513 -10.83788,-14.79678 -0.92049,-5.28586 -0.0544,-9.77784 2.66727,-13.83344 4.19982,-6.25828 4.02117,-5.59091 2.04805,-7.65039 -1.45975,-1.52365 -2.01069,-3.05996 -3.17196,-8.84492 -0.77295,-3.85055 -2.01075,-8.60108 -2.75067,-10.55674 -1.68482,-4.45312 -6.49508,-9.8515 -10.04325,-11.2712 -3.69347,-1.47784 -10.8439,-2.14067 -16.38693,-1.51904 -8.67596,0.97297 -14.46761,5.20987 -18.29141,13.38114 -2.42436,5.18075 -3.089,13.93801 -1.47832,19.47854 1.21216,4.16969 4.20064,8.72002 7.41187,11.28549 2.20061,1.75807 2.71683,1.89376 6.87423,1.80686 7.21392,-0.15079 9.35221,-1.78687 11.07512,-8.47393 0.51269,-1.98984 1.06976,-3.7555 1.23795,-3.92368 0.5777,-0.5777 2.95782,0.53729 5.02919,2.35598 2.64001,2.31796 3.16277,5.15997 1.85916,10.10755 -1.59008,6.03483 -1.38929,8.53936 0.91817,11.45277 1.18668,1.4983 2.12822,3.51615 2.32491,4.9826 0.39104,2.9154 -0.59804,3.30704 -1.92687,0.76298 -0.48883,-0.93586 -1.73501,-2.50601 -2.76929,-3.48921 -1.79751,-1.70874 -2.23009,-1.80984 -9.80055,-2.29035 -4.35602,-0.27648 -9.53464,-0.93384 -11.50804,-1.46079 -1.97345,-0.52695 -4.535,-0.95809 -5.69238,-0.95809 -1.92019,0 -2.3643,0.38724 -5.07539,4.42552 -4.96168,7.39063 -11.32285,10.66101 -20.60366,10.59268 -6.45338,-0.0475 -11.11554,-1.87504 -15.25241,-5.9788 -2.50219,-2.48215 -3.41665,-3.95242 -4.25679,-6.84404 -1.44176,-4.96226 -0.9163,-11.3592 1.32124,-16.08496 3.90037,-8.2377 14.84231,-12.342 22.65057,-8.49619 4.95103,2.43854 7.29087,8.14991 5.16994,12.61943 -1.58101,3.33172 -3.28084,3.91057 -10.98049,3.73923 l -6.69581,-0.14901 0,3.41732 c 0,4.95766 1.17193,7.30064 4.27216,8.54111 7.85865,3.1444 18.07361,-1.37407 21.77351,-9.63127 1.16296,-2.59542 1.46629,-4.34733 1.47622,-8.52602 0.0166,-7.00647 -1.7897,-10.99525 -7.41732,-16.37906 l -4.02482,-3.85044 1.5157,-5.97506 c 3.65911,-14.42466 11.86844,-22.58368 25.60282,-25.4459 12.84434,-2.67674 27.28007,1.31602 35.12888,9.71625 4.68997,5.01947 7.12717,9.66288 9.44925,18.00295 2.8099,10.09208 5.46908,12.75946 10.84536,10.87878 3.06483,-1.0721 4.41851,-3.24203 6.05477,-9.70564 4.64981,-18.36789 18.17422,-28.79428 37.3266,-28.77623 9.80594,0.009 18.17876,3.33199 24.61537,9.7686 4.83488,4.83489 7.93184,11.77876 9.39727,21.07016 0.38806,2.46051 0.32527,2.56862 -3.34836,5.76384 -4.69802,4.08622 -6.59242,7.29899 -7.43931,12.61654 -1.14028,7.15983 0.51824,13.8976 4.36875,17.74812 3.0518,3.0518 6.7644,4.46652 12.69174,4.83631 5.03227,0.31396 5.14884,0.28854 6.95329,-1.5159 1.94532,-1.94533 3.18023,-5.3401 3.18592,-8.75818 l 0.004,-2.07048 -6.44536,0.43932 -6.44536,0.43932 -2.58768,-2.41376 c -2.13819,-1.99448 -2.64417,-2.91491 -2.91286,-5.29876 -0.63865,-5.66609 4.71526,-11.23451 10.71454,-11.14382 12.03839,0.18199 20.60206,9.37088 19.93647,21.39201 -0.59145,10.68211 -7.97683,17.04615 -20.3035,17.49568 -2.89265,0.10549 -6.31256,-0.0718 -7.59979,-0.39406 l -2.6e-4,0 z m -75.30305,-10.40617 c 3.4537,-1.83714 5.68388,-5.50435 5.65449,-9.29804 -0.0474,-6.11584 -4.16686,-10.5734 -10.23667,-11.07676 -7.65106,-0.63448 -13.48812,6.13238 -11.56967,13.41261 0.93192,3.53649 2.8541,6.18169 5.24988,7.2246 2.83434,1.23381 8.33821,1.10133 10.90197,-0.26241 l 0,0 z" id="path3007" inkscape:connector-curvature="0"/>
  <path style="fill:#000000;fill-opacity:1;fill-rule:nonzero;stroke:none" d="m 125.61919,120.77851 c -3.20948,-6.1421 -10.04768,-13.7159 -13.82116,-15.30795 l -2.85873,-1.20612 5.68779,-0.554 c 3.12828,-0.3047 11.20057,-0.56078 17.93841,-0.56906 15.27536,-0.0188 19.9076,0.9934 12.56356,2.74521 -2.87566,0.68594 -10.54754,8.97102 -14.04415,15.16666 -1.44329,2.55739 -2.68502,4.64885 -2.7594,4.64771 -0.0744,-10e-4 -1.29222,-2.21625 -2.70632,-4.92245 z" id="path3029" inkscape:connector-curvature="0"/>
  <path style="fill:#000000;fill-opacity:1;fill-rule:nonzero;stroke:none" d="" id="path3031" inkscape:connector-curvature="0"/>
  <path style="fill:#ff0000;fill-opacity:1;fill-rule:nonzero;stroke:none" d="m 112.69577,74.971673 c -4.33147,-0.324572 -8.72303,-1.046108 -9.75901,-1.603414 -2.49079,-1.339907 -5.26319,-7.374076 -5.9967,-13.05191 -0.45625,-3.53158 -0.15838,-5.869747 1.30985,-10.281775 1.04522,-3.140878 2.03353,-5.710688 2.19625,-5.710688 0.16272,0 0.9458,1.956799 1.74018,4.348443 1.53294,4.615253 5.54363,9.652271 7.68555,9.652271 1.03645,0 1.40682,-2.255096 1.9042,-11.594341 0.7163,-13.449733 1.60324,-17.77711 4.3495,-21.221256 l 1.9852,-2.489672 0.60283,5.884023 c 1.08092,10.550329 6.96389,22.677412 11.56074,23.831148 1.20528,0.302505 2.43263,0.308792 2.72746,0.01397 0.29482,-0.294822 -0.40929,-3.39383 -1.56469,-6.886686 -1.82398,-5.514052 -2.07744,-7.791543 -1.92404,-17.288699 0.12475,-7.722962 0.60407,-12.057682 1.63072,-14.74712 l 1.45405,-3.809062 2.34489,4.246584 c 3.98238,7.212038 7.07155,11.786461 14.15207,20.956297 9.42383,12.204606 11.29296,15.945202 11.28233,22.578863 -0.0101,6.283163 -2.81686,13.180563 -6.56265,16.127007 -2.28759,1.799417 -3.23004,1.892872 -17.82929,1.767996 -8.47772,-0.07251 -18.95797,-0.397403 -23.28944,-0.721975 z" id="path3035" inkscape:connector-curvature="0"/>
  <path style="fill:#000000;fill-opacity:1;fill-rule:nonzero;stroke:#0000ff;stroke-width:0.00386719;stroke-miterlimit:4;stroke-opacity:1;stroke-dasharray:none" d="m 61.502257,154.51925 c -0.59815,-1.49876 -0.979089,-2.94572 -1.222418,-4.64326 -0.570054,-3.97688 -0.297074,-8.7107 0.738703,-12.81006 0.155733,-0.61635 0.187984,-0.70576 0.254584,-0.70576 0.0896,0 0.100758,-0.068 -0.139534,0.85078 -0.722913,2.7642 -0.995406,5.51534 -0.879065,8.8752 0.08582,2.47855 0.249841,4.04644 0.606819,5.80078 0.204507,1.00503 0.571911,2.32169 0.824273,2.95394 0.04571,0.11452 0.07748,0.22513 0.0706,0.24579 -0.0069,0.0207 -0.121168,-0.23468 -0.25396,-0.56741 l 0,0 z" id="path3784" inkscape:connector-curvature="0"/>
  <path style="fill:#000000;fill-opacity:1;fill-rule:nonzero;stroke:#0000ff;stroke-width:0.00386719;stroke-miterlimit:4;stroke-opacity:1;stroke-dasharray:none" d="m 59.376492,158.68604 c -0.169518,-0.9621 -0.536683,-2.28349 -0.939788,-3.38221 -0.957596,-2.61005 -2.571172,-5.19983 -4.493269,-7.21167 -0.741976,-0.77661 -1.20413,-1.20131 -3.585877,-3.29521 -1.265537,-1.1126 -2.315744,-2.0437 -2.333793,-2.06912 -0.01952,-0.0275 0.189477,-1.15868 0.515685,-2.79121 0.471365,-2.35897 0.592441,-2.9484 0.716774,-3.48944 0.01781,-0.0775 0.04368,-0.087 0.236464,-0.087 0.205539,0 0.215305,0.004 0.193405,0.087 -0.29005,1.09424 -1.456832,5.77047 -1.448184,5.80404 0.0066,0.0257 1.021368,1.01388 2.255001,2.19599 2.980629,2.85615 3.856476,3.75782 4.897682,5.04206 2.336693,2.88214 3.4932,5.46787 4.016935,8.98111 0.106077,0.71157 0.08372,0.86693 -0.03104,0.21566 l 0,0 z" id="path3786" inkscape:connector-curvature="0"/>
  <path style="fill:#000000;fill-opacity:1;fill-rule:nonzero;stroke:#0000ff;stroke-width:0.00386719;stroke-miterlimit:4;stroke-opacity:1;stroke-dasharray:none" d="" id="path3788" inkscape:connector-curvature="0"/>
  <path style="fill:#000000;fill-opacity:1;fill-rule:nonzero;stroke:#0000ff;stroke-width:0.00441942;stroke-miterlimit:4;stroke-opacity:1;stroke-dasharray:none" d="m 114.07809,154.29488 c 0,-0.45519 -0.0108,-0.52233 -0.12001,-0.74345 -0.2314,-0.46868 -0.64828,-0.88545 -1.38259,-1.38223 -0.93862,-0.635 -1.42565,-1.31491 -1.87998,-2.62453 -0.39539,-1.13972 -0.63066,-2.29987 -0.99334,-4.89836 -0.85512,-6.1266 -2.04258,-10.44865 -3.86842,-14.08007 l -0.17564,-0.34933 0.12473,0 c 0.11673,0 0.14909,0.0474 0.50509,0.74025 0.2092,0.40714 0.46351,0.93913 0.56513,1.1822 0.80571,1.92711 1.93518,6.18337 3.02573,11.40209 0.74513,3.56574 1.08849,4.89294 1.57783,6.0988 0.4737,1.16733 0.76635,1.58602 2.07306,2.9659 0.56766,0.59945 0.74446,0.86813 0.78026,1.18572 0.0204,0.18108 -0.0613,0.58513 -0.17437,0.86242 -0.0521,0.12776 -0.0575,0.0941 -0.0575,-0.35941 l 0,0 z" id="path4218" inkscape:connector-curvature="0"/>
  <path style="fill:#000000;fill-opacity:1;fill-rule:nonzero;stroke:#0000ff;stroke-width:0.00441942;stroke-miterlimit:4;stroke-opacity:1;stroke-dasharray:none" d="m 114.08364,154.1591 c -0.0418,-0.52048 -0.2045,-0.83736 -0.66454,-1.29386 -0.19661,-0.19511 -0.57573,-0.50337 -0.84249,-0.68501 -0.77594,-0.52839 -1.13686,-0.94546 -1.54783,-1.78868 -0.56715,-1.16367 -0.87789,-2.49889 -1.34738,-5.78944 -0.89352,-6.26251 -1.99094,-10.25957 -3.82823,-13.94326 -1.13702,-2.27967 -2.35977,-3.98591 -4.02299,-5.6137 -1.869869,-1.83003 -4.085768,-3.19261 -6.468324,-3.97742 -2.508183,-0.82619 -6.178646,-1.32189 -9.866349,-1.33247 l -1.358971,-0.004 0,-3.59606 0,-3.59606 7.706329,0 7.706329,0 0.370156,0.14949 c 0.95981,0.38764 1.52543,0.63721 2.26447,0.99917 4.88416,2.39208 9.20364,6.22869 12.38977,11.00474 2.15744,3.23402 3.87152,6.973 5.03465,10.98225 0.32651,1.12544 0.615,2.29054 0.96526,3.89818 0.59976,2.75292 1.15404,4.46168 1.96099,6.04551 1.197,2.34938 2.69012,3.6236 4.66927,3.98472 0.48175,0.0879 1.68027,0.0981 2.2318,0.019 2.29596,-0.32931 3.9852,-1.57449 5.16178,-3.80485 0.74546,-1.41311 1.16619,-2.7267 1.68445,-5.2591 0.42052,-2.05484 0.71665,-3.19101 1.27279,-4.88346 1.3954,-4.24645 3.54694,-8.34508 6.19425,-11.79984 2.56343,-3.3453 5.61604,-6.1213 8.81731,-8.01834 1.81578,-1.07601 4.06524,-2.06414 6.80734,-2.99031 l 0.96863,-0.32716 3.81538,0 3.81539,0 0,3.95149 0,3.9515 -0.18782,0.0294 c -3.93718,0.61541 -7.58213,2.04482 -10.46297,4.10317 -1.63821,1.17049 -3.80256,3.2777 -5.00078,4.86875 -0.99517,1.32142 -1.79972,2.89212 -2.46748,4.81717 -0.5684,1.63863 -1.09119,3.73436 -1.94398,7.79297 -0.62483,2.97368 -0.91726,4.22934 -1.29856,5.57576 -0.54676,1.93071 -1.09724,3.28253 -1.72044,4.2249 -0.30583,0.46247 -0.50746,0.67388 -1.12878,1.18356 -0.85512,0.70147 -1.11245,1.0118 -1.11245,1.34155 l 0,0.14429 -14.26836,0 -14.26837,0 -0.0292,-0.36461 z" id="path4220" inkscape:connector-curvature="0"/>
  <path style="fill:#000000;fill-opacity:1;fill-rule:nonzero;stroke:#0000ff;stroke-width:0.00625;stroke-miterlimit:4;stroke-opacity:1;stroke-dasharray:none" d="m 23.226032,183.12905 c -2.166746,-2.68996 -3.374497,-5.8922 -3.74752,-9.93623 -0.09532,-1.03339 -0.04272,-3.83882 0.09524,-5.07939 0.728427,-6.55025 3.091992,-10.84829 7.72197,-14.04205 4.5442,-3.1346 9.739686,-4.28129 14.529995,-3.20691 4.242795,0.95158 7.401514,3.54475 8.646327,7.09824 0.378616,1.08082 0.479378,1.75702 0.478801,3.21322 -3.75e-4,1.00523 -0.02747,1.45882 -0.115631,1.9375 -0.884034,4.79987 -3.441707,6.5407 -9.383242,6.38651 -1.495937,-0.0388 -1.700745,-0.0559 -6.152221,-0.51363 -1.493097,-0.15352 -2.797385,-0.27913 -2.898418,-0.27913 l -0.183698,0 0.03301,2.42187 c 0.0248,1.81916 0.05888,2.5852 0.136965,3.07813 0.280389,1.77009 0.733793,3.19039 1.302043,4.07871 0.954002,1.49135 3.349555,2.6091 6.418567,2.99486 0.841078,0.10572 3.160847,0.10404 3.9375,-0.003 2.077388,-0.28592 3.587742,-0.74593 5.46875,-1.66563 1.862739,-0.91077 3.15675,-1.84063 4.692455,-3.37194 1.473999,-1.46978 2.372427,-2.68788 3.29738,-4.47065 1.042179,-2.00871 1.635099,-3.87968 2.020266,-6.375 0.126131,-0.81714 0.183496,-3.84293 0.09026,-4.76068 -0.384242,-3.78212 -1.727455,-7.34125 -3.897688,-10.32775 -1.234485,-1.69881 -2.279898,-2.76226 -5.468295,-5.56265 -1.342443,-1.17908 -2.265625,-2.03406 -2.265625,-2.09825 0,-0.16176 1.223221,-6.20755 1.440267,-7.11853 0.66651,-2.7975 1.565201,-5.40227 2.730256,-7.91339 0.480114,-1.03482 0.512205,-1.09637 1.262674,-2.42188 l 0.451172,-0.79687 7.698441,0.002 7.69844,0.002 -0.249805,0.20103 c -0.46857,0.37708 -1.436799,1.27602 -1.906697,1.77025 -3.404054,3.58029 -5.635093,8.20701 -6.463002,13.40294 -0.269518,1.69149 -0.359999,2.93578 -0.358791,4.93409 0.0043,7.05819 1.224334,11.31464 4.362297,15.21875 0.664411,0.82663 2.280217,2.49223 3.277336,3.37833 1.522234,1.35275 2.52532,1.90904 3.934197,2.18181 0.87853,0.17009 2.973053,0.25286 4.316693,0.17059 2.256456,-0.13817 3.563503,-0.44239 5.025272,-1.16968 1.936425,-0.96344 3.287506,-2.55254 4.0577,-4.77253 0.32005,-0.92251 0.437987,-1.43263 0.65915,-2.85102 0.287681,-1.84501 0.46565,-2.61837 0.722512,-3.1397 0.303331,-0.61564 0.53365,-0.78689 1.101469,-0.81898 0.607719,-0.0343 1.202619,0.16726 2.713856,0.91964 1.458738,0.72624 2.128275,1.183 2.883981,1.96746 1.085963,1.12727 1.720475,2.38339 2.057857,4.07385 0.08513,0.42652 0.111262,0.85112 0.1095,1.77898 -0.0032,1.70345 -0.148588,2.4514 -0.983919,5.0625 -0.534238,1.66994 -0.733,2.38865 -0.907456,3.28125 -0.49085,2.51144 -0.226575,4.28778 0.874981,5.88124 0.178275,0.25789 0.715969,0.87826 1.194875,1.37861 1.181806,1.23472 1.767725,2.16196 2.196462,3.47596 0.304732,0.93396 0.442369,2.19439 0.311219,2.85013 l -0.03906,0.19531 -1.195313,-5e-4 -1.195312,-5e-4 -0.144132,-0.25236 c -0.228831,-0.40069 -0.992312,-1.4723 -1.533868,-2.15293 -2.010482,-2.52679 -2.881138,-3.13809 -4.896813,-3.43814 -0.753112,-0.11211 -3.299594,-0.21266 -5.487687,-0.21668 -2.839904,-0.005 -6.253089,-0.31175 -9.125,-0.8195 -1.363323,-0.24104 -2.260937,-0.45694 -3.983708,-0.95822 -2.84246,-0.82707 -3.738269,-1.00308 -4.882687,-0.95933 -1.066609,0.0408 -1.554876,0.25428 -2.272422,0.99369 -0.490678,0.50564 -0.85463,1.05972 -1.801039,2.74193 -0.473814,0.84219 -1.030381,1.78438 -1.236815,2.09375 -0.449461,0.67359 -1.359581,1.81633 -1.978651,2.48438 l -0.448865,0.48437 -17.115368,0 -17.115368,0 -0.516019,-0.64062 0,3e-5 z" id="path4222" inkscape:connector-curvature="0"/>
  <path style="fill:#000000;fill-opacity:1;fill-rule:nonzero;stroke:#0000ff;stroke-width:0.00625;stroke-miterlimit:4;stroke-opacity:1;stroke-dasharray:none" d="m 57.452717,153.16778 c -1.028203,-2.03049 -2.38728,-3.88989 -4.03079,-5.51468 -0.464724,-0.45943 -1.88165,-1.75303 -3.148723,-2.87466 l -2.30377,-2.03934 0.03424,-0.28159 c 0.05778,-0.47512 1.285714,-6.41422 1.518426,-7.34408 2.052961,-8.20319 5.826839,-14.31189 11.524358,-18.65425 4.703422,-3.58471 11.010813,-5.91541 18.218014,-6.73191 1.257943,-0.14251 5.592845,-0.16179 7.03125,-0.0313 4.746038,0.43066 8.971417,1.30981 12.682791,2.63885 4.322567,1.5479 8.023997,3.90034 11.353787,7.21586 2.02975,2.02107 3.67189,4.10859 5.07823,6.45555 l 0.38519,0.64282 0,13.5603 0,13.5603 -0.89062,-0.002 -0.89063,-0.002 -0.12123,-0.26401 c -0.15159,-0.33012 -0.68202,-0.86391 -1.25377,-1.2617 -1.66365,-1.15748 -2.23062,-2.56696 -2.90469,-7.22106 -0.98015,-6.7675 -2.03432,-10.63011 -3.94106,-14.44057 -2.19475,-4.38601 -5.53366,-7.59591 -9.543652,-9.17489 -3.041673,-1.19769 -7.848028,-1.81813 -12.657471,-1.63391 -4.755079,0.18213 -8.169186,0.92308 -10.859375,2.35676 -6.459748,3.4426 -10.83319,9.83806 -12.086003,17.67386 -0.428543,2.68035 -0.47853,6.35755 -0.12999,9.5625 0.152071,1.39834 0.503117,3.24507 0.816797,4.29687 0.03054,0.1024 -0.08255,0.10938 -1.771951,0.10938 l -1.804569,0 -0.304791,-0.6019 z" id="path4224" inkscape:connector-curvature="0"/>
  <path style="fill:#000000;fill-opacity:1;fill-rule:nonzero;stroke:#0000ff;stroke-width:0.00625;stroke-miterlimit:4;stroke-opacity:1;stroke-dasharray:none" d="m 127.37499,124.9728 c -1.52058,-3.04009 -2.51017,-4.92717 -3.08612,-5.88505 -3.29195,-5.47495 -8.89712,-11.51717 -12.19492,-13.14581 -0.29834,-0.14733 -0.81674,-0.32664 -1.25602,-0.43444 -0.93377,-0.22916 -1.463,-0.48435 -1.91893,-0.92532 -0.42405,-0.41013 -0.5138,-0.65341 -0.30379,-0.82346 0.53454,-0.43285 3.1655,-0.69324 8.72073,-0.86312 3.64887,-0.11158 15.04968,-0.20512 20.21875,-0.1659 7.75111,0.0588 10.30212,0.23315 11.23403,0.76768 0.46882,0.26891 0.57624,0.72877 0.30452,1.30355 -0.28058,0.5935 -0.73772,0.8656 -1.5698,0.93438 -1.1202,0.0926 -1.94295,0.33207 -3.0625,0.89138 -3.64464,1.82083 -7.85567,6.4367 -12.21836,13.39299 -1.30534,2.08137 -1.63124,2.68534 -3.16165,5.85937 -0.31906,0.66172 -0.59603,1.20313 -0.6155,1.20313 -0.0195,0 -0.51016,-0.94922 -1.09044,-2.10938 z" id="path4226" inkscape:connector-curvature="0"/>
  <path style="fill:#000000;fill-opacity:1;fill-rule:nonzero;stroke:#0000ff;stroke-width:0.00625;stroke-miterlimit:4;stroke-opacity:1;stroke-dasharray:none" d="m 126.52344,190.89112 c -6.99567,-0.69711 -13.52983,-4.69619 -16.38536,-10.0283 -1.79855,-3.35843 -2.73818,-7.54073 -2.62567,-11.68689 0.0694,-2.55827 0.43947,-4.55794 1.24334,-6.71875 0.77387,-2.08019 1.60203,-3.34528 3.39564,-5.18714 1.51747,-1.55829 1.90158,-2.16135 1.90269,-2.98723 4.4e-4,-0.3421 -0.0325,-0.52047 -0.13221,-0.71596 -0.18589,-0.36437 -0.74529,-0.93272 -1.34314,-1.36462 -1.17573,-0.84937 -1.73803,-1.80451 -2.24152,-3.80755 -0.21244,-0.84517 -0.30928,-1.39063 -0.66025,-3.71875 -0.63112,-4.18656 -1.13694,-6.60323 -1.9066,-9.10923 -0.18737,-0.61008 -0.34067,-1.12336 -0.34067,-1.14062 0,-0.0173 2.65321,-0.0314 5.89602,-0.0314 l 5.89602,0 0.2256,0.73437 c 0.36235,1.17954 0.63379,2.23669 1.07921,4.20313 0.70316,3.10431 1.13706,4.47115 1.93664,6.10065 1.14553,2.33449 2.56482,3.64417 4.43526,4.09271 0.70978,0.17021 2.03848,0.18552 2.84819,0.0328 2.87098,-0.54142 4.74304,-2.56387 5.89693,-6.37067 0.11923,-0.39335 0.38802,-1.51316 0.5973,-2.48847 0.45745,-2.13183 0.87316,-3.7092 1.36504,-5.17954 l 0.36591,-1.09375 5.92325,-0.0159 c 5.3241,-0.0143 5.9195,-0.006 5.88614,0.0808 -0.0204,0.0532 -0.16336,0.5248 -0.31766,1.04802 -0.41314,1.40091 -0.88827,3.40741 -1.56427,6.60591 -1.08707,5.14354 -1.60039,6.94559 -2.50135,8.78125 -0.48338,0.98487 -0.84102,1.46311 -1.49948,2.0051 -1.08651,0.89433 -1.24792,1.11102 -1.20581,1.61876 0.0369,0.44451 0.2802,0.82312 1.55547,2.42011 1.58351,1.983 2.37924,3.21005 3.14516,4.84995 1.11577,2.38896 1.63563,4.61666 1.70659,7.31305 0.0928,3.52815 -0.73598,6.91143 -2.60545,10.63543 -3.01356,6.00304 -7.08154,9.22548 -13.49864,10.69292 -1.60967,0.36809 -2.31076,0.44621 -4.19107,0.46696 -0.94531,0.0104 -1.97187,-0.006 -2.28125,-0.0371 l 0,0 z m 3.34375,-9.37886 c 4.07907,-0.44726 8.39263,-4.43338 9.1902,-8.49258 0.38057,-1.93684 0.003,-4.47674 -0.97442,-6.55107 -1.47007,-3.12057 -4.34266,-5.39927 -7.65823,-6.07494 -2.61889,-0.5337 -5.51118,-0.0579 -7.66903,1.26162 -1.757,1.0744 -3.28855,2.77405 -4.29882,4.77064 -1.12165,2.21671 -1.44108,4.36372 -0.97022,6.52113 0.68761,3.15052 2.93277,6.47844 5.09927,7.55849 0.52994,0.26418 1.28273,0.48985 2.33876,0.70109 2.01135,0.40234 3.32154,0.48336 4.94249,0.30562 z" id="path4228" inkscape:connector-curvature="0"/>
  <path style="fill:#000000;fill-opacity:1;fill-rule:nonzero;stroke:#0000ff;stroke-width:0.00625;stroke-miterlimit:4;stroke-opacity:1;stroke-dasharray:none" d="m 96.380063,185.2406 c -0.06666,-0.0848 -0.139667,-0.26956 -0.162234,-0.41069 -0.187198,-1.17067 -3.418596,-5.33301 -4.771783,-6.1465 -1.259355,-0.75709 -2.066934,-0.86115 -7.578854,-0.97658 -3.577718,-0.0749 -5.248906,-0.20089 -7.96875,-0.60066 -2.161173,-0.31765 -2.930349,-0.49142 -5.783008,-1.30649 -2.304099,-0.65833 -3.025407,-0.80167 -4.060742,-0.80695 -0.464063,-0.002 -0.935156,0.0161 -1.046875,0.041 l -0.203125,0.0453 2.81e-4,-7.48281 2.81e-4,-7.48281 0.353123,0.40625 c 0.555005,0.63851 2.557043,2.61282 3.177565,3.13356 1.537679,1.29041 2.549797,1.74352 4.318697,1.9334 0.888068,0.0953 3.616094,0.0964 4.493803,0.002 5.013444,-0.54045 7.80516,-3.12469 8.649044,-8.00627 0.06834,-0.39531 0.196802,-1.16919 0.285475,-1.71974 0.08867,-0.55054 0.190222,-1.10601 0.225665,-1.23437 l 0.06444,-0.23339 2.616826,0 2.616826,0 0.479148,0.32047 c 1.063677,0.71143 2.077999,1.87977 2.62473,3.02328 0.600829,1.25666 0.808303,2.2632 0.805178,3.90625 -0.0032,1.69598 -0.118871,2.29243 -0.96944,5 -0.9317,2.96582 -1.141039,3.99072 -1.136165,5.5625 0.0028,0.90265 0.02348,1.10919 0.165866,1.65625 0.188016,0.72239 0.596939,1.57417 1.035174,2.15625 0.16822,0.22344 0.657218,0.77664 1.086662,1.22933 0.843031,0.88868 1.197545,1.35149 1.595716,2.08317 0.777347,1.42846 1.136287,3.29377 0.856479,4.45088 -0.139433,0.57661 -0.268764,0.8301 -0.595037,1.16631 -0.440978,0.45439 -0.947806,0.58002 -1.174968,0.29123 l 0,0 z" id="path4230" inkscape:connector-curvature="0"/>
  <path style="fill:#000000;fill-opacity:1;fill-rule:nonzero;stroke:#0000ff;stroke-width:0.0125;stroke-miterlimit:4;stroke-opacity:1;stroke-dasharray:none" d="m 37.720878,190.36865 c -6.568845,-0.7955 -12.474186,-4.05125 -15.451817,-8.51894 -2.466498,-3.70078 -3.384601,-9.07884 -2.552027,-14.94925 0.963242,-6.79173 4.247356,-11.3992 10.283939,-14.42792 2.874745,-1.44233 5.71453,-2.05438 8.969905,-1.93326 2.228918,0.0829 3.60535,0.37895 5.439507,1.16983 1.576867,0.67992 2.450237,1.28516 3.758853,2.60483 0.980014,0.98829 1.223322,1.32392 1.773314,2.44619 0.871861,1.77905 1.078763,2.8012 0.9937,4.90914 -0.17135,4.24618 -1.873609,6.66604 -5.311144,7.5501 -1.360156,0.3498 -5.886054,0.28585 -9.764112,-0.13797 -1.67606,-0.18317 -3.189565,-0.33304 -3.363344,-0.33304 l -0.315961,0 0.07583,2.59375 c 0.04625,1.582 0.152418,2.95944 0.272165,3.53125 0.294522,1.40637 0.781492,2.77976 1.220804,3.443 0.806446,1.21751 2.592265,2.18582 4.973475,2.69674 1.845436,0.39595 4.868035,0.39605 6.729732,2.5e-4 2.076802,-0.44158 4.18526,-1.34007 6.142178,-2.61739 1.301762,-0.84969 3.804685,-3.32193 4.713849,-4.65607 1.28262,-1.88215 2.298625,-4.22148 2.873643,-6.61649 0.265069,-1.10404 0.325138,-1.71454 0.378193,-3.84376 0.07005,-2.81117 -0.02816,-3.8129 -0.585405,-5.97126 -0.801363,-3.10391 -2.264374,-5.86235 -4.50528,-8.49451 -0.701685,-0.82419 -5.832138,-5.57194 -6.324774,-5.85297 -0.09638,-0.055 -0.175226,-0.2106 -0.175226,-0.34583 0,-0.25088 1.285677,-6.54692 1.510696,-7.39796 l 0.12394,-0.46875 6.196055,0 c 5.851843,0 6.191073,0.0122 6.106358,0.21875 -0.552372,1.34709 -1.212157,4.31779 -1.44563,6.50899 -0.196122,1.84063 -0.08367,6.97403 0.192167,8.77226 0.759304,4.95006 2.194616,7.84877 5.622968,11.35594 3.439053,3.51813 4.505766,4.0196 8.548192,4.01856 3.652338,-8.8e-4 5.896269,-0.6 7.770254,-2.07441 1.210811,-0.95264 2.147002,-2.38476 2.729289,-4.17509 0.145342,-0.44687 0.428313,-1.74674 0.628826,-2.8886 0.552799,-3.148 0.901094,-3.71915 2.175911,-3.56817 0.83327,0.0987 3.652761,1.48045 4.549489,2.22958 2.285294,1.90916 3.265681,4.82509 2.745116,8.16469 -0.107165,0.6875 -0.451286,2.06563 -0.764712,3.0625 -1.066149,3.39096 -1.11168,3.6223 -1.119405,5.6875 l -0.007,1.875 0.460921,0.94271 c 0.315413,0.6451 0.830759,1.35719 1.632443,2.25567 1.342595,1.5047 1.820014,2.27378 2.272802,3.66133 0.404114,1.23838 0.440063,2.74179 0.08429,3.52512 -0.284501,0.62641 -0.830453,1.07746 -1.243519,1.02737 -0.321484,-0.039 -0.395882,-0.13463 -0.660999,-0.8497 -0.460685,-1.24256 -3.294225,-4.8498 -4.415687,-5.62138 -1.243291,-0.85541 -2.05748,-0.98306 -7.201938,-1.1291 -6.133296,-0.17412 -9.608125,-0.59992 -13.240816,-1.62253 -4.31716,-1.21528 -5.648097,-1.37569 -6.833785,-0.82364 -0.827046,0.38508 -1.45182,1.17322 -2.770449,3.49487 -0.55113,0.97036 -1.356202,2.23991 -1.78905,2.82123 -3.300726,4.43295 -8.638647,7.48707 -14.983458,8.57287 -1.396317,0.23896 -5.726359,0.34714 -7.123258,0.17797 l -10e-7,0 z" id="path4232" inkscape:connector-curvature="0"/>
  <path style="fill:#000000;fill-opacity:1;fill-rule:nonzero;stroke:#0000ff;stroke-width:0.00055243;stroke-miterlimit:4;stroke-opacity:1;stroke-dasharray:none" d="m 40.162669,190.4886 c -0.287949,-0.005 -0.501433,-0.0129 -0.872835,-0.0303 -0.154956,-0.007 -0.345129,-0.0146 -0.422607,-0.0164 -0.255974,-0.006 -0.781823,-0.0306 -0.838308,-0.0395 l -0.01795,-0.003 0,-0.84496 0,-0.84497 5.239772,0 5.239772,0 0,0.30629 0,0.30629 -0.06215,0.0194 c -0.891558,0.27767 -1.940954,0.5416 -2.876764,0.72351 -0.43353,0.0843 -0.729459,0.13647 -0.925316,0.1632 -0.205079,0.028 -0.658513,0.0735 -0.941888,0.0946 -0.04406,0.003 -0.189482,0.0169 -0.32317,0.0304 -0.708756,0.0712 -1.305589,0.10965 -2.011093,0.12961 -0.27669,0.008 -0.914923,0.0109 -1.18746,0.006 l 0,0 z" id="path4234" inkscape:connector-curvature="0"/>
  <path style="fill:#000000;fill-opacity:1;fill-rule:nonzero;stroke:#0000ff;stroke-width:0.00039063;stroke-miterlimit:4;stroke-opacity:1;stroke-dasharray:none" d="m 128.01526,190.9616 c -0.25536,-0.007 -0.48846,-0.0164 -0.77344,-0.0327 -0.0902,-0.005 -0.20361,-0.0105 -0.25195,-0.0118 -0.1298,-0.004 -0.3278,-0.0131 -0.41016,-0.0197 -0.16949,-0.0136 -0.5797,-0.0612 -0.875,-0.10146 -0.15024,-0.0205 -0.35507,-0.0505 -0.37402,-0.0548 l -0.009,-0.002 0,-0.56243 0,-0.56243 3.70508,0 3.70508,0 0,0.45508 c 0,0.2503 -0.001,0.45508 -0.003,0.45509 -0.002,0 -0.0601,0.0124 -0.12989,0.0276 -0.84933,0.18454 -1.47825,0.27953 -2.14453,0.32392 -0.0354,0.002 -0.0926,0.007 -0.12695,0.01 -0.46033,0.0409 -0.87797,0.0644 -1.35352,0.0762 -0.176,0.004 -0.78366,0.004 -0.95898,-3.8e-4 l 0,0 z" id="path4238" inkscape:connector-curvature="0"/>
  <path style="fill:#000000;fill-opacity:1;fill-rule:nonzero;stroke:#0000ff;stroke-width:0.00039063;stroke-miterlimit:4;stroke-opacity:1;stroke-dasharray:none" d="m 79.776212,110.92871 0,-1.2455 0.04199,-0.003 c 0.0231,-0.001 0.145703,-0.008 0.272461,-0.0142 0.126757,-0.006 0.240136,-0.0125 0.251953,-0.0137 0.01182,-0.001 0.112011,-0.007 0.222656,-0.0137 0.546552,-0.0315 1.027592,-0.0489 1.632813,-0.059 0.303776,-0.005 1.131877,-0.003 1.425781,0.004 0.384817,0.009 0.750465,0.0209 1.132812,0.0372 0.07412,0.003 0.204199,0.008 0.289063,0.01 0.402771,0.0107 0.865261,0.0324 1.132812,0.053 0.109335,0.008 0.540497,0.049 0.787037,0.074 0.115976,0.0118 0.213095,0.0214 0.215821,0.0214 0.004,0 0.005,0.23275 0.005,1.19727 l 0,1.19726 -3.705078,0 -3.705078,0 0,-1.2455 z" id="path4240" inkscape:connector-curvature="0"/>
  <path style="fill:#000000;fill-opacity:1;fill-rule:nonzero;stroke:#0000ff;stroke-width:0.0125;stroke-miterlimit:4;stroke-opacity:1;stroke-dasharray:none" d="m 212.64602,191.96903 c -3.56889,-0.42 -6.69867,-1.40285 -9.52287,-2.99046 -1.82612,-1.02655 -2.95654,-1.86565 -4.39725,-3.26406 -2.18198,-2.11793 -3.55549,-4.18529 -4.65535,-7.00709 -0.29476,-0.75625 -0.66897,-1.59024 -0.83158,-1.85331 -0.71699,-1.15995 -2.14347,-1.11613 -7.34295,0.22561 -1.16875,0.3016 -2.74375,0.66291 -3.5,0.8029 -3.07007,0.56831 -8.20578,0.87784 -14.6875,0.88522 l -3.5625,0.004 -0.81082,1.40526 c -1.65268,2.86432 -2.87452,4.51631 -3.62887,4.90639 -0.46179,0.23881 -0.86234,0.0138 -1.22666,-0.68905 -0.25604,-0.49397 -0.28352,-0.68366 -0.2268,-1.56546 0.12433,-1.93274 0.85287,-3.36671 2.74133,-5.39571 2.15338,-2.31362 2.25037,-2.7758 1.54263,-7.35091 -0.85419,-5.52189 -1.06388,-7.96558 -0.8398,-9.78679 0.32404,-2.63354 1.35559,-3.94197 4.19899,-5.326 1.21509,-0.59145 4.96264,-2.1997 5.12576,-2.1997 0.034,0 0.0617,1.14054 0.0617,2.53453 0,4.94592 0.54941,6.93671 2.4225,8.77797 1.74869,1.71897 4.45334,2.55444 8.28808,2.56021 2.26676,0.003 3.75355,-0.37074 5.58438,-1.40528 2.87835,-1.62646 5.55787,-4.75954 7.40203,-8.65493 1.46173,-3.08763 1.74081,-4.90222 1.73978,-11.3125 -6.2e-4,-3.80738 -0.0367,-4.75332 -0.21817,-5.71545 -0.79771,-4.22973 -3.73883,-9.3939 -7.5311,-13.22351 -3.14537,-3.17634 -7.46575,-5.13464 -13.125,-5.94918 -1.67572,-0.24118 -5.68962,-0.21111 -7.4375,0.0557 -2.88973,0.44115 -5.68394,1.30377 -8.0625,2.489 -3.59751,1.79265 -7.15654,5.11824 -8.95299,8.36577 -1.15806,2.09349 -1.77785,4.13358 -3.17939,10.46543 -1.24236,5.61263 -1.73615,7.37908 -2.51868,9.01018 -0.49271,1.02698 -0.71699,1.32927 -1.67759,2.26104 -1.5336,1.48757 -1.55006,1.38158 0.6502,4.18715 1.40191,1.78759 1.72315,2.27012 2.54333,3.8203 2.64291,4.9952 2.79887,10.74925 0.45185,16.67104 -1.12052,2.82719 -3.08935,5.90252 -5.00209,7.81327 -2.29904,2.29665 -4.83867,3.70889 -8.42827,4.68681 -6.09662,1.6609 -12.50925,0.57909 -17.94445,-3.02723 -1.71627,-1.13878 -4.13222,-3.46736 -5.09459,-4.91035 -3.97116,-5.95446 -4.67368,-15.07244 -1.63585,-21.2314 0.66248,-1.34313 1.36116,-2.29017 2.79892,-3.79391 2.37531,-2.4843 2.44811,-3.32818 0.43232,-5.01123 -0.51276,-0.42811 -1.08595,-1.00284 -1.27376,-1.27718 -0.63714,-0.93068 -1.0682,-2.57719 -1.72172,-6.57656 -0.71602,-4.38178 -1.0906,-6.19813 -1.71111,-8.29722 -2.45699,-8.31162 -6.81053,-13.29785 -13.267379,-15.19551 l -0.90625,-0.26634 0,-0.73783 0,-0.73782 8.174169,0 8.17417,0 1.27438,1.40625 c 2.80099,3.09082 4.84621,6.28055 6.49971,10.13693 1.1781,2.74763 1.86468,4.93213 2.75616,8.76932 0.67546,2.90741 1.13008,4.333 1.87353,5.875 0.98339,2.03966 2.25382,3.37968 3.74788,3.95317 0.95379,0.36612 2.66774,0.44827 3.79962,0.18212 2.49013,-0.58552 4.31845,-2.48892 5.37511,-5.59582 0.17967,-0.52829 0.57425,-2.05242 0.87684,-3.38696 0.98615,-4.34929 1.87747,-6.93954 3.51504,-10.21501 1.90661,-3.81361 3.91233,-6.66477 6.78346,-9.64274 l 1.42907,-1.48226 25.02453,0 25.02453,0 1.18991,1.21875 c 4.33322,4.43824 7.19134,10.11959 8.53647,16.96875 0.40775,2.07616 1.18294,7.24944 1.09725,7.32254 -0.0491,0.0419 -1.12995,0.9406 -2.40183,1.9971 -4.1949,3.48455 -6.00006,5.44719 -7.23654,7.86786 -1.37019,2.68244 -1.89234,5.31878 -1.89392,9.5625 -0.001,2.89523 0.20435,4.70749 0.76516,6.75 1.71714,6.25406 6.07946,10.09196 12.8653,11.31868 0.72188,0.1305 2.56379,0.30477 4.09315,0.38726 3.14037,0.1694 4.01796,0.0838 5.08315,-0.49588 1.1647,-0.63381 2.75154,-2.80726 3.39623,-4.65171 0.52117,-1.49112 0.67747,-2.58853 0.67747,-4.75685 l 0,-1.989 -0.29846,0 c -0.16415,0 -1.55634,0.13686 -3.09375,0.30414 -7.7461,0.84283 -8.95628,0.77925 -10.98756,-0.57718 -1.9921,-1.33028 -3.35895,-3.21944 -4.0079,-5.53946 -0.28775,-1.02869 -0.22917,-3.54537 0.10997,-4.7249 0.92742,-3.22554 3.21447,-5.7257 6.59311,-7.20746 2.45148,-1.07513 3.91527,-1.22162 6.95818,-0.69633 9.46672,1.63422 14.47455,5.84489 17.10162,14.37938 0.77995,2.5338 0.92912,3.52441 0.93157,6.18681 0.002,2.68889 -0.14272,3.71645 -0.81722,5.78373 -1.5634,4.79169 -4.90082,8.74646 -9.17706,10.87458 -2.06142,1.0259 -5.35385,2.00537 -8.0625,2.39854 -1.91976,0.27866 -5.09075,0.34488 -6.8125,0.14226 z m -82.70628,-10.51326 c 1.9237,-0.18441 4.16813,-1.36086 5.9587,-3.12335 2.54669,-2.50675 3.53381,-4.98841 3.19454,-8.03121 -0.50748,-4.55137 -3.38606,-8.21912 -7.48394,-9.53569 -1.45379,-0.46707 -2.71102,-0.60574 -4.33959,-0.47864 -3.42175,0.26706 -6.11772,1.94106 -8.12576,5.04554 -2.23852,3.46079 -2.39933,6.91908 -0.49718,10.69192 0.98382,1.95137 2.73587,3.87502 4.08755,4.4879 1.30888,0.59347 4.72445,1.19202 6.03696,1.05793 0.20625,-0.0211 0.73217,-0.0726 1.16872,-0.1144 z" id="path4248" inkscape:connector-curvature="0"/>
  <path style="fill:#000000;fill-opacity:1;fill-rule:nonzero;stroke:#0000ff;stroke-width:0.00039063;stroke-miterlimit:4;stroke-opacity:1;stroke-dasharray:none" d="m 201.42137,187.94549 c -0.54217,-0.36498 -1.08163,-0.77623 -1.69141,-1.28942 -0.64926,-0.54643 -1.29384,-1.16343 -1.85916,-1.77961 -0.14904,-0.16244 -0.46911,-0.52492 -0.48204,-0.5459 -0.002,-0.004 0.57265,-0.005 2.87027,-0.005 l 2.87328,0 0,1.85547 0,1.85547 -0.78809,-2e-4 -0.78808,-2.1e-4 -0.13477,-0.0907 0,0 z" id="path4250" inkscape:connector-curvature="0"/>
  <path style="fill:#000000;fill-opacity:1;fill-rule:nonzero;stroke:#0000ff;stroke-width:0.00039063;stroke-miterlimit:4;stroke-opacity:1;stroke-dasharray:none" d="m 214.9421,192.09866 c -0.0752,-0.002 -0.25185,-0.007 -0.39258,-0.011 -0.14072,-0.004 -0.29101,-0.009 -0.33398,-0.0101 -0.23996,-0.007 -0.8058,-0.0337 -0.90918,-0.0434 l -0.0264,-0.002 0,-1.10887 0,-1.10887 3.70508,0 3.70508,0 0,0.90429 c 0,0.49737 -6.8e-4,0.9043 -0.002,0.9043 -8.2e-4,0 -0.0478,0.009 -0.10449,0.0193 -0.69956,0.13129 -1.17472,0.20445 -1.71236,0.26365 -1.08097,0.11903 -1.86802,0.17339 -2.80273,0.19357 -0.20795,0.004 -0.92342,0.004 -1.12696,-4.4e-4 l 0,0 z" id="path4256" inkscape:connector-curvature="0"/>
  <path style="fill:#000000;fill-opacity:1;fill-rule:nonzero;stroke:#0000ff;stroke-width:0.00039063;stroke-miterlimit:4;stroke-opacity:1;stroke-dasharray:none" d="m 205.96944,165.33364 c -0.007,-0.0133 -0.0938,-0.29271 -0.13078,-0.42157 -0.0396,-0.13802 -0.0604,-0.22342 -0.082,-0.3369 -0.036,-0.18914 -0.0681,-0.4375 -0.0865,-0.66992 -0.001,-0.0172 -0.008,-0.0863 -0.0159,-0.15357 -0.0259,-0.2373 -0.0407,-0.42071 -0.0532,-0.66088 -0.007,-0.12957 -0.007,-0.69024 -6e-5,-0.82227 0.0108,-0.21095 0.0228,-0.37626 0.0401,-0.54883 0.004,-0.0419 0.008,-0.0793 0.008,-0.083 2e-5,-0.007 0.1135,-0.007 2.32815,-0.007 l 2.32812,0 0,1.85547 0,1.85547 -2.16588,0 c -2.09618,0 -2.166,-2.3e-4 -2.16971,-0.007 l 0,0 z" id="path4258" inkscape:connector-curvature="0"/>
  <path style="fill:#000000;fill-opacity:1;fill-rule:nonzero;stroke:#0000ff;stroke-width:0.00625;stroke-miterlimit:4;stroke-opacity:1;stroke-dasharray:none" d="m 141.23751,140.23733 0,-12.67484 0.37251,-0.60478 c 0.91631,-1.48765 1.95277,-2.91909 3.14791,-4.34749 0.7434,-0.88849 3.11211,-3.3776 3.29208,-3.45942 0.0516,-0.0234 0.49025,-0.37501 0.97486,-0.78125 2.37879,-1.99414 4.69084,-3.33709 8.02514,-4.66139 3.66361,-1.45508 7.86289,-2.52558 11.9375,-3.04316 1.92871,-0.245 3.33819,-0.3316 5.40625,-0.33218 2.68413,-7.5e-4 4.29424,0.17057 6.96708,0.74131 7.25662,1.54953 13.29461,4.64955 17.68917,9.08197 2.39429,2.41491 4.1032,4.82496 5.65474,7.97482 1.63817,3.32572 2.64314,6.57031 3.33937,10.78125 0.15076,0.91181 0.88089,5.60369 0.88089,5.66064 0,0.007 -0.83672,0.71234 -1.85937,1.5668 -3.70082,3.09214 -5.30887,4.63745 -6.5435,6.28818 l -0.36227,0.48438 -2.06162,0 c -1.82875,0 -2.05745,-0.0109 -2.02475,-0.096 0.078,-0.20324 0.28406,-1.85404 0.3469,-2.77895 0.10567,-1.55534 0.14994,-6.23249 0.0763,-8.0625 -0.0742,-1.84344 -0.18464,-2.64192 -0.5325,-3.84855 -1.18198,-4.10001 -3.96584,-8.61066 -7.3913,-11.97604 -3.09645,-3.04212 -7.15407,-4.87642 -12.71576,-5.74831 -0.82756,-0.12973 -1.11459,-0.14142 -3.5259,-0.14354 -2.85967,-0.003 -3.44391,0.0373 -5.11485,0.34834 -5.76816,1.07382 -10.1979,3.5169 -13.81369,7.61847 -1.16822,1.32517 -1.91408,2.42638 -2.60317,3.84338 -0.99877,2.0538 -1.58909,4.18732 -3.2229,11.64825 -0.82251,3.75605 -1.41885,5.73967 -2.18199,7.258 -0.38853,0.77302 -0.5924,1.07206 -1.05457,1.54687 l -0.38022,0.39063 -1.36118,0 -1.36118,0 0,-12.67484 z" id="path4262" inkscape:connector-curvature="0"/>
  <path style="fill:#ff0000;fill-opacity:1;fill-rule:nonzero;stroke:#0000ff;stroke-width:0.0125;stroke-miterlimit:4;stroke-opacity:1;stroke-dasharray:none" d="m 132.8856,76.482034 c -9.47242,-0.143353 -17.85755,-0.349 -20.2054,-0.495542 -6.70781,-0.418671 -9.44392,-1.095048 -11.24492,-2.779795 -0.97137,-0.908665 -1.39611,-1.565942 -2.26398,-3.503453 -2.145653,-4.790139 -2.783946,-7.480888 -2.78512,-11.740787 -0.0012,-4.323268 0.851379,-8.12579 2.586675,-11.536723 0.661735,-1.30072 2.501545,-4.572945 2.663815,-4.737759 0.12383,-0.125786 0.10677,-0.187618 0.61739,2.23683 0.94682,4.495569 2.0195,7.373177 3.71101,9.955347 1.17264,1.790082 3.23249,3.506145 4.3559,3.628908 0.35239,0.03851 0.38157,0.0064 0.53154,-0.584255 0.0873,-0.34375 0.24175,-1.3 0.34327,-2.125 0.34892,-2.835425 0.41942,-4.768611 0.28949,-7.9375 -0.29982,-7.312161 0.15332,-12.637218 1.40407,-16.5 0.53906,-1.664819 1.71068,-4.004148 2.60508,-5.201444 0.81429,-1.090069 4.54123,-4.78593 4.61201,-4.573566 0.0235,0.07056 -0.0868,0.765986 -0.24528,1.545397 -0.40848,2.009618 -0.40215,5.764364 0.0139,8.229613 0.79948,4.737485 2.4837,9.820604 4.70084,14.1875 1.55959,3.071792 2.99747,5.160589 4.50047,6.53782 1.30985,1.200239 2.45639,1.618039 3.49742,1.274466 l 0.4678,-0.154386 -0.0771,-0.655726 c -0.1601,-1.362178 -1.27045,-5.121613 -2.50099,-8.467878 -1.44141,-3.919664 -1.77635,-7.208609 -1.66695,-16.368237 0.10533,-8.817763 0.22399,-9.333816 3.98297,-17.3211284 l 0.54359,-1.1550693 2.0625,4.0267677 c 2.39952,4.684749 3.94217,7.323133 6.56078,11.220871 3.36931,5.01512 6.96431,9.735979 10.37565,13.625 0.69351,0.790625 1.73967,2 2.32479,2.6875 6.17903,7.26011 8.74693,14.380574 7.55141,20.939109 -0.95879,5.259825 -3.69281,11.221167 -6.37764,13.905993 -1.74487,1.744874 -2.32709,1.853657 -10.18499,1.902965 -3.26562,0.02049 -9.00312,-0.0091 -12.75,-0.06584 l 0,0 z" id="path3008" inkscape:connector-curvature="0"/>
  <path style="fill:#000000;fill-opacity:1;fill-rule:nonzero;stroke:#0000ff;stroke-width:0.00625;stroke-miterlimit:4;stroke-opacity:1;stroke-dasharray:none" d="m 101.02296,88.993185 0.0162,-3.015625 1.125,-0.05018 c 0.61875,-0.0276 5.34375,-0.03459 10.5,-0.01554 5.15625,0.01905 17.69297,0.05247 27.85937,0.07427 l 18.48438,0.03963 0,2.99154 0,2.99154 -29.0006,0 -29.0006,0 0.0162,-3.015625 z" id="path3010" inkscape:connector-curvature="0"/>
</svg>
