<?xml version="1.0" ?><svg data-name="Layer 1" id="Layer_1" viewBox="0 0 64 64" xmlns="http://www.w3.org/2000/svg"><defs><style>.cls-1{fill:none;stroke:#078cd6;stroke-linecap:round;stroke-linejoin:round;stroke-width:2px;}</style></defs><title/><path class="cls-1" d="M56.06,41.07H61v-4a3.74,3.74,0,0,0-2.61-3.56L44.93,29.28l-6.4-5.41A12,12,0,0,0,29.6,21.1L13.09,22.77,7.56,31.44a5.32,5.32,0,0,0-.83,2.86v4.82"/><line class="cls-1" x1="23.44" x2="47.25" y1="41.07" y2="41.07"/><line class="cls-1" x1="3.54" x2="10.78" y1="39.84" y2="41.07"/><circle class="cls-1" cx="15.12" cy="41.07" r="4.34"/><circle class="cls-1" cx="51.59" cy="41.07" r="4.34"/><polyline class="cls-1" points="28.74 21.19 30.02 30.87 30.02 41.07"/><path class="cls-1" d="M44.93,29.28H19.83c-1.64-.14-6.74-6.51-6.74-6.51L11.17,21.5"/></svg>