<?xml version="1.0" ?><svg id="Layer_1" style="enable-background:new 0 0 48 48;" version="1.1" viewBox="0 0 48 48" xml:space="preserve" xmlns="http://www.w3.org/2000/svg" xmlns:xlink="http://www.w3.org/1999/xlink"><style type="text/css">
	.st0{opacity:0.3;}
	.st1{fill:#29ABE2;}
</style><title/><g id="Excel"><g class="st0"><path class="st1" d="M36.5,12h3c0.3,0,0.5,0.2,0.5,0.5v1c0,0.3-0.2,0.5-0.5,0.5h-3c-0.3,0-0.5-0.2-0.5-0.5v-1    C36,12.2,36.2,12,36.5,12z"/><path class="st1" d="M36.5,16h3c0.3,0,0.5,0.2,0.5,0.5v1c0,0.3-0.2,0.5-0.5,0.5h-3c-0.3,0-0.5-0.2-0.5-0.5v-1    C36,16.2,36.2,16,36.5,16z"/><path class="st1" d="M36.5,20h3c0.3,0,0.5,0.2,0.5,0.5v1c0,0.3-0.2,0.5-0.5,0.5h-3c-0.3,0-0.5-0.2-0.5-0.5v-1    C36,20.2,36.2,20,36.5,20z"/><path class="st1" d="M36.5,24h3c0.3,0,0.5,0.2,0.5,0.5v1c0,0.3-0.2,0.5-0.5,0.5h-3c-0.3,0-0.5-0.2-0.5-0.5v-1    C36,24.2,36.2,24,36.5,24z"/><path class="st1" d="M36.5,28h3c0.3,0,0.5,0.2,0.5,0.5v1c0,0.3-0.2,0.5-0.5,0.5h-3c-0.3,0-0.5-0.2-0.5-0.5v-1    C36,28.2,36.2,28,36.5,28z"/><path class="st1" d="M41.5,10H30V6.5C30,6.2,29.8,6,29.5,6h-0.1l-17,3.1c-0.2,0-0.4,0.2-0.4,0.5v22.7c0,0.2,0.2,0.4,0.4,0.5    l17,3.2h0.1c0.3,0,0.5-0.2,0.5-0.5V32h11.5c0.3,0,0.5-0.2,0.5-0.5v-21C42,10.2,41.8,10,41.5,10z M23.9,26.2    c0.1,0.2,0.1,0.5-0.2,0.7C23.5,27,23.2,27,23,26.7l-2.6-4.3l-2.6,4.3c-0.1,0.2-0.5,0.3-0.7,0.2c-0.2-0.1-0.3-0.4-0.2-0.7l2.9-4.7    l-2.9-4.7c-0.1-0.2-0.1-0.5,0.2-0.7c0.2-0.1,0.5-0.1,0.7,0.2l2.6,4.3l2.6-4.3c0.1-0.2,0.5-0.3,0.7-0.2c0.2,0.1,0.3,0.4,0.2,0.7    L21,21.5L23.9,26.2z M41,31H30v-1h2.5c0.3,0,0.5-0.2,0.5-0.5v-1c0-0.3-0.2-0.5-0.5-0.5H30v-2h2.5c0.3,0,0.5-0.2,0.5-0.5v-1    c0-0.3-0.2-0.5-0.5-0.5H30v-2h2.5c0.3,0,0.5-0.2,0.5-0.5v-1c0-0.3-0.2-0.5-0.5-0.5H30v-2h2.5c0.3,0,0.5-0.2,0.5-0.5v-1    c0-0.3-0.2-0.5-0.5-0.5H30v-2h2.5c0.3,0,0.5-0.2,0.5-0.5v-1c0-0.3-0.2-0.5-0.5-0.5H30v-1h11V31z"/></g><path class="st1" d="M29.5,21H20v-2.5c0-0.3-0.2-0.5-0.5-0.5h-0.1l-13,2.5C6.2,20.6,6,20.8,6,21v18c0,0.2,0.2,0.4,0.4,0.5l13,2.5   h0.1c0.3,0,0.5-0.2,0.5-0.5V39h9.5c0.3,0,0.5-0.2,0.5-0.5v-17C30,21.2,29.8,21,29.5,21z M19,40.9L7,38.6V21.4l12-2.3V40.9z M29,38   h-9v-1h2.5c0.3,0,0.5-0.2,0.5-0.5v-1c0-0.3-0.2-0.5-0.5-0.5H20v-1h2.5c0.3,0,0.5-0.2,0.5-0.5v-1c0-0.3-0.2-0.5-0.5-0.5H20v-1h2.5   c0.3,0,0.5-0.2,0.5-0.5v-1c0-0.3-0.2-0.5-0.5-0.5H20v-1h2.5c0.3,0,0.5-0.2,0.5-0.5v-1c0-0.3-0.2-0.5-0.5-0.5H20v-1h2.5   c0.3,0,0.5-0.2,0.5-0.5v-1c0-0.3-0.2-0.5-0.5-0.5H20v-1h9V38z"/><path class="st1" d="M24.5,23h3c0.3,0,0.5,0.2,0.5,0.5v1c0,0.3-0.2,0.5-0.5,0.5h-3c-0.3,0-0.5-0.2-0.5-0.5v-1   C24,23.2,24.2,23,24.5,23z"/><path class="st1" d="M24.5,26h3c0.3,0,0.5,0.2,0.5,0.5v1c0,0.3-0.2,0.5-0.5,0.5h-3c-0.3,0-0.5-0.2-0.5-0.5v-1   C24,26.2,24.2,26,24.5,26z"/><path class="st1" d="M24.5,29h3c0.3,0,0.5,0.2,0.5,0.5v1c0,0.3-0.2,0.5-0.5,0.5h-3c-0.3,0-0.5-0.2-0.5-0.5v-1   C24,29.2,24.2,29,24.5,29z"/><path class="st1" d="M24.5,32h3c0.3,0,0.5,0.2,0.5,0.5v1c0,0.3-0.2,0.5-0.5,0.5h-3c-0.3,0-0.5-0.2-0.5-0.5v-1   C24,32.2,24.2,32,24.5,32z"/><path class="st1" d="M24.5,35h3c0.3,0,0.5,0.2,0.5,0.5v1c0,0.3-0.2,0.5-0.5,0.5h-3c-0.3,0-0.5-0.2-0.5-0.5v-1   C24,35.2,24.2,35,24.5,35z"/><path class="st1" d="M14.7,26c-0.2-0.1-0.5,0-0.7,0.2l-1.6,3.1l-1.6-3.1c-0.1-0.2-0.4-0.3-0.7-0.2c-0.2,0.1-0.3,0.4-0.2,0.6   l1.9,3.8l-1.9,3.8c-0.1,0.3,0,0.5,0.3,0.7c0.2,0.1,0.5,0,0.6-0.2l1.6-3.1l1.6,3.1c0.1,0.3,0.4,0.4,0.7,0.3c0.3-0.1,0.4-0.4,0.3-0.7   c0,0,0,0,0-0.1l-1.9-3.8l1.9-3.8C15.1,26.5,15,26.2,14.7,26C14.7,26.1,14.7,26.1,14.7,26z"/></g></svg>