<?xml version="1.0" ?><!DOCTYPE svg  PUBLIC '-//W3C//DTD SVG 1.1//EN'  'http://www.w3.org/Graphics/SVG/1.1/DTD/svg11.dtd'><svg height="6.82666in" style="shape-rendering:geometricPrecision; text-rendering:geometricPrecision; image-rendering:optimizeQuality; fill-rule:evenodd; clip-rule:evenodd" viewBox="0 0 6.82666 6.82666" width="6.82666in" xml:space="preserve" xmlns="http://www.w3.org/2000/svg" xmlns:xlink="http://www.w3.org/1999/xlink"><defs><style type="text/css">
   <![CDATA[
    .str0 {stroke:#373435;stroke-width:0.00694488;stroke-linecap:round;stroke-linejoin:round}
    .fil4 {fill:none}
    .fil2 {fill:#81868C}
    .fil0 {fill:#C3B68B}
    .fil3 {fill:#EDEAE3}
    .fil1 {fill:black;fill-rule:nonzero}
   ]]>
  </style></defs><g id="Layer_x0020_1"><path class="fil0 str0" d="M2.73428 2.42599l-1.66762 -0.499862 0 3.94054 1.66762 0 0 -1.83757 0 -1.6031zm-1.42048 0.604311l1.17333 0c0.0294528,0 0.0533346,0.0238819 0.0533346,0.0533346l0 0.283634c0,0.0294528 -0.0238819,0.0533346 -0.0533346,0.0533346l-1.17333 0c-0.0294528,0 -0.0533346,-0.0238819 -0.0533346,-0.0533346l0 -0.283634c0,-0.0294528 0.0238819,-0.0533346 0.0533346,-0.0533346zm0 0.803634l1.17333 0c0.0294528,0 0.0533346,0.0238819 0.0533346,0.0533346l0 0.283638c0,0.0294528 -0.0238819,0.0533346 -0.0533346,0.0533346l-1.17333 0c-0.0294528,0 -0.0533346,-0.0238819 -0.0533346,-0.0533346l0 -0.283638c0,-0.0294528 0.0238819,-0.0533346 0.0533346,-0.0533346zm0 0.803634l1.17333 0c0.0294528,0 0.0533346,0.0238819 0.0533346,0.0533346l0 0.283638c0,0.0294528 -0.0238819,0.0533346 -0.0533346,0.0533346l-1.17333 0c-0.0294528,0 -0.0533346,-0.0238819 -0.0533346,-0.0533346l0 -0.283638c0,-0.0294528 0.0238819,-0.0533346 0.0533346,-0.0533346z"/><g id="_406561008"><path class="fil1" d="M2.78762 3.97575l3.02571 0c0.0294528,0 0.0533346,0.0238819 0.0533346,0.0533346l0 1.89091c0,0.0294528 -0.0238819,0.0533346 -0.0533346,0.0533346l-3.02571 0c-0.0294528,0 -0.0533346,-0.0238819 -0.0533346,-0.0533346l0 -1.89091c0,-0.0294528 0.0238819,-0.0533346 0.0533346,-0.0533346zm2.97238 0.106669l-2.91904 0 0 1.78424 2.91904 0 0 -1.78424z" id="_409840048"/><path class="fil1" d="M1.03161 1.80442l1.77121 0.530917 -0.0152087 0.0510394 0.015315 -0.0510866c0.0234528,0.0070315 0.0384764,0.0287598 0.0380197,0.0520984l0 3.53261c0,0.0294528 -0.0238819,0.0533346 -0.0533346,0.0533346l-1.77429 0c-0.0294528,0 -0.0533346,-0.0238819 -0.0533346,-0.0533346l0 -4.06546c0,-0.0294528 0.0238819,-0.0533346 0.0533346,-0.0533346 0.00642126,0 0.0125827,0.00113386 0.0182835,0.00321654zm1.70267 0.621567l-1.66762 -0.499862 0 3.94054 1.66762 0 0 -3.44067z" id="_409839976"/><path class="fil1" d="M4.42667 1.70666l0.864287 0c0.0294528,0 0.0533346,0.0238819 0.0533346,0.0533346l-3.93701e-006 0.000354331 0.133134 2.26561 -0.053126 0.00312598 0.0532402 -0.00312992c0.00172835,0.0294016 -0.0207087,0.0546417 -0.0501102,0.0563701 -0.00104724,6.29921e-005 -0.00209449,9.05512e-005 -0.00312992,9.05512e-005l0 3.93701e-006 -1.13096 0c-0.0294528,0 -0.0533346,-0.0238819 -0.0533346,-0.0533346 0,-0.00227165 0.000141732,-0.00450787 0.000417323,-0.00670079l0.13313 -2.26551 -0.000114173 -7.87402e-006c0.00166535,-0.0283543 0.0251969,-0.0502244 0.0532402,-0.0502008l0 -3.93701e-006zm0.81411 0.106669l-0.763933 0 -0.127071 2.16242 1.01807 0 -0.127071 -2.16242z" id="_409839904"/><path class="fil1" d="M4.39678 2.48075c-0.0294528,0 -0.0533346,0.0238819 -0.0533346,0.0533346 0,0.0294528 0.0238819,0.0533346 0.0533346,0.0533346l0.924047 0c0.0294528,0 0.0533346,-0.0238819 0.0533346,-0.0533346 0,-0.0294528 -0.0238819,-0.0533346 -0.0533346,-0.0533346l-0.924047 0z" id="_409839832"/><path class="fil1" d="M4.36209 3.20166c-0.0294528,0 -0.0533346,0.0238819 -0.0533346,0.0533346 0,0.0294528 0.0238819,0.0533346 0.0533346,0.0533346l0.993425 0c0.0294528,0 0.0533346,-0.0238819 0.0533346,-0.0533346 0,-0.0294528 -0.0238819,-0.0533346 -0.0533346,-0.0533346l-0.993425 0z" id="_409839760"/><path class="fil1" d="M3.47478 4.9212l1.65139 0c0.0294528,0 0.0533346,0.0238819 0.0533346,0.0533346l0 0.945457c0,0.0294528 -0.0238819,0.0533346 -0.0533346,0.0533346l-1.65139 0c-0.0294528,0 -0.0533346,-0.0238819 -0.0533346,-0.0533346l0 -0.945457c0,-0.0294528 0.0238819,-0.0533346 0.0533346,-0.0533346zm1.59806 0.106669l-1.54472 0 0 0.838787 1.54472 0 0 -0.838787z" id="_409839688"/><path class="fil1" d="M3.52811 4.63757l1.54472 0 0 -0.271508 -1.54472 0 0 0.271508zm1.59806 0.106669l-1.65139 0c-0.0294528,0 -0.0533346,-0.0238819 -0.0533346,-0.0533346l0 -0.378177c0,-0.0294528 0.0238819,-0.0533346 0.0533346,-0.0533346l1.65139 0c0.0294528,0 0.0533346,0.0238819 0.0533346,0.0533346l0 0.378177c0,0.0294528 -0.0238819,0.0533346 -0.0533346,0.0533346z" id="_409839616"/><path class="fil1" d="M1.31381 3.0303l1.17333 0c0.0294528,0 0.0533346,0.0238819 0.0533346,0.0533346l0 0.283634c0,0.0294528 -0.0238819,0.0533346 -0.0533346,0.0533346l-1.17333 0c-0.0294528,0 -0.0533346,-0.0238819 -0.0533346,-0.0533346l0 -0.283634c0,-0.0294528 0.0238819,-0.0533346 0.0533346,-0.0533346zm1.12 0.106669l-1.06667 0 0 0.176965 1.06667 0 0 -0.176965z" id="_409839544"/><path class="fil1" d="M1.31381 3.83393l1.17333 0c0.0294528,0 0.0533346,0.0238819 0.0533346,0.0533346l0 0.283638c0,0.0294528 -0.0238819,0.0533346 -0.0533346,0.0533346l-1.17333 0c-0.0294528,0 -0.0533346,-0.0238819 -0.0533346,-0.0533346l0 -0.283638c0,-0.0294528 0.0238819,-0.0533346 0.0533346,-0.0533346zm1.12 0.106669l-1.06667 0 0 0.176969 1.06667 0 0 -0.176969z" id="_409839472"/><path class="fil1" d="M1.31381 4.63757l1.17333 0c0.0294528,0 0.0533346,0.0238819 0.0533346,0.0533346l0 0.283638c0,0.0294528 -0.0238819,0.0533346 -0.0533346,0.0533346l-1.17333 0c-0.0294528,0 -0.0533346,-0.0238819 -0.0533346,-0.0533346l0 -0.283638c0,-0.0294528 0.0238819,-0.0533346 0.0533346,-0.0533346zm1.12 0.106669l-1.06667 0 0 0.176969 1.06667 0 0 -0.176969z" id="_409839400"/><g><path class="fil1" d="M4.89072 0.948118c0.0228937,-0.0184094 0.0265315,-0.0518976 0.00812205,-0.0747913 -0.0184094,-0.0228937 -0.0518976,-0.0265315 -0.0747913,-0.00812205 -0.144823,0.116583 -0.0871339,0.222484 -0.0264173,0.333917 0.0393937,0.0722953 0.0806654,0.148055 0.0189173,0.222154 -0.018752,0.0225512 -0.0156732,0.0560394 0.00687795,0.0747913 0.0225512,0.018752 0.0560394,0.0156732 0.0747913,-0.00687795 0.107925,-0.129512 0.0489882,-0.237677 -0.00725591,-0.340902 -0.0389094,-0.0714134 -0.0758819,-0.139283 -0.000244094,-0.200169z" id="_409839328"/><path class="fil1" d="M5.17713 1.03955c0.0228937,-0.0184094 0.0265315,-0.0518976 0.00812205,-0.0747913 -0.0184094,-0.0228937 -0.0518976,-0.0265315 -0.0747913,-0.00812205 -0.144823,0.116583 -0.0871339,0.222484 -0.0264173,0.333917 0.0393937,0.0722953 0.0806654,0.148055 0.0189173,0.222154 -0.018752,0.0225512 -0.0156732,0.0560394 0.00687795,0.0747913 0.0225512,0.018752 0.0560394,0.0156732 0.0747913,-0.00687795 0.107925,-0.129512 0.0489882,-0.237677 -0.00725591,-0.340902 -0.0389094,-0.0714134 -0.0758819,-0.139283 -0.000244094,-0.200169z" id="_409839232"/><path class="fil1" d="M4.62856 1.03955c0.0228937,-0.0184094 0.0265315,-0.0518976 0.00812205,-0.0747913 -0.0184094,-0.0228937 -0.0518976,-0.0265315 -0.0747913,-0.00812205 -0.144823,0.116583 -0.0871339,0.222484 -0.0264173,0.333917 0.0393937,0.0722953 0.0806654,0.148055 0.0189173,0.222154 -0.018752,0.0225512 -0.0156732,0.0560394 0.00687795,0.0747913 0.0225512,0.018752 0.0560394,0.0156732 0.0747913,-0.00687795 0.107925,-0.129512 0.0489882,-0.237677 -0.00725591,-0.340902 -0.0389094,-0.0714134 -0.0758819,-0.139283 -0.000244094,-0.200169z" id="_409839208"/></g></g><path class="fil0 str0" d="M4.29333 4.08242l-1.45237 0 0 1.78424 0.580488 0 0 -0.892122c0,-0.0294528 0.0238819,-0.0533346 0.0533346,-0.0533346l1.65139 0c0.0294528,0 0.0533346,0.0238819 0.0533346,0.0533346l0 0.892122 0.580492 0 0 -1.78424 -0.335705 -3.93701e-006 -1.13096 3.93701e-006zm0.832843 0.661815l-1.65139 0c-0.0294528,0 -0.0533346,-0.0238819 -0.0533346,-0.0533346l0 -0.378177c0,-0.0294528 0.0238819,-0.0533346 0.0533346,-0.0533346l1.65139 0c0.0294528,0 0.0533346,0.0238819 0.0533346,0.0533346l0 0.378177c0,0.0294528 -0.0238819,0.0533346 -0.0533346,0.0533346z"/><polygon class="fil2 str0" points="4.43762,2.48075 5.28,2.48075 5.24078,1.81333 4.47684,1.81333 "/><polygon class="fil2 str0" points="5.28626,2.58742 4.43135,2.58742 4.39526,3.20166 5.32236,3.20166 "/><polygon class="fil2 str0" points="5.32863,3.30833 4.38899,3.30833 4.34977,3.97575 5.36785,3.97575 "/><polygon class="fil3 str0" points="2.43381,3.31393 2.43381,3.13697 1.36714,3.13697 1.36714,3.31393 "/><polygon class="fil3 str0" points="2.43381,3.9406 1.36714,3.9406 1.36714,4.11757 2.43381,4.11757 "/><polygon class="fil3 str0" points="2.43381,4.74424 1.36714,4.74424 1.36714,4.9212 2.43381,4.9212 "/><polygon class="fil3 str0" points="3.52811,4.36606 3.52811,4.63757 5.07283,4.63757 5.07283,4.36606 "/><polygon class="fil3 str0" points="5.07283,5.02787 3.52811,5.02787 3.52811,5.86666 5.07283,5.86666 "/></g><rect class="fil4" height="6.82666" width="6.82666"/></svg>