<?xml version="1.0" ?><!DOCTYPE svg  PUBLIC '-//W3C//DTD SVG 1.1//EN'  'http://www.w3.org/Graphics/SVG/1.1/DTD/svg11.dtd'><svg enable-background="new 0 0 24 24" height="24px" id="Layer_1" version="1.1" viewBox="0 0 24 24" width="24px" xml:space="preserve" xmlns="http://www.w3.org/2000/svg" xmlns:xlink="http://www.w3.org/1999/xlink"><path d="M23,8c0.6,0,1-0.4,1-1V1c0-0.6-0.4-1-1-1h-6c-0.6,0-1,0.4-1,1v2H8V1c0-0.6-0.4-1-1-1H1C0.4,0,0,0.4,0,1v6c0,0.6,0.4,1,1,1h2  v8H1c-0.6,0-1,0.4-1,1v6c0,0.6,0.4,1,1,1h6c0.6,0,1-0.4,1-1v-2h8v2c0,0.6,0.4,1,1,1h6c0.6,0,1-0.4,1-1v-6c0-0.6-0.4-1-1-1h-2V8H23z   M17,1h6v6h-6V1z M1,7V1h6v6H1z M7,23H1v-6h6V23z M23,17v6h-6v-6H23z M19,16h-2c-0.6,0-1,0.4-1,1v2H8v-2c0-0.6-0.4-1-1-1H5V8h2  c0.6,0,1-0.4,1-1V5h8v2c0,0.6,0.4,1,1,1h2V16z"/></svg>