<?xml version="1.0" ?><!DOCTYPE svg  PUBLIC '-//W3C//DTD SVG 1.1//EN'  'http://www.w3.org/Graphics/SVG/1.1/DTD/svg11.dtd'><svg enable-background="new 0 0 65 65" height="65px" version="1.1" viewBox="0 0 65 65" width="65px" xml:space="preserve" xmlns="http://www.w3.org/2000/svg" xmlns:xlink="http://www.w3.org/1999/xlink"><g id="Layer_2"><g><path d="M16.489,50.984c0.17,0.003,0.34,0.003,0.511,0.007V44h0.969c0.002-0.667,0.026-1.333,0.03-2H16    c-0.552,0-1,0.447-1,1v7.865C15.475,50.785,15.98,50.872,16.489,50.984z" fill="#92278F"/><path d="M62.383,31.076c-0.375-0.156-0.804-0.069-1.09,0.217L53,39.586V32c0-0.404-0.244-0.77-0.617-0.924    c-0.375-0.156-0.804-0.069-1.09,0.217L43,39.586V32c0-0.404-0.244-0.77-0.617-0.924c-0.375-0.156-0.804-0.069-1.09,0.217    L30.586,42h-2.147c0.151,0.649,0.2,1.322,0.146,2H31c0.265,0,0.52-0.105,0.707-0.293L41,34.414V42c0,0.404,0.244,0.77,0.617,0.924    c0.374,0.155,0.803,0.068,1.09-0.217L51,34.414V42c0,0.404,0.244,0.77,0.617,0.924c0.375,0.155,0.803,0.068,1.09-0.217L61,34.414    V62H18.587c-0.137,0.188-0.384,0.308-0.652,0.182c-0.089-0.042-0.184-0.081-0.278-0.121c-0.074,0.064-0.164,0.115-0.282,0.127    c-0.791,0.078-1.583,0.079-2.375,0.071V63c0,0.553,0.448,1,1,1h46c0.552,0,1-0.447,1-1V32C63,31.596,62.756,31.23,62.383,31.076z" fill="#92278F"/></g><g><path d="M29.02,51c-0.007,0-0.013-0.001-0.02,0H16c-0.29,0-0.565-0.126-0.755-0.345s-0.275-0.51-0.234-0.797l3-21    C18.081,28.366,18.502,28,19,28h8c0.516,0,0.947,0.392,0.996,0.905l1.981,20.803c0.028,0.093,0.043,0.19,0.043,0.292    C30.02,50.553,29.572,51,29.02,51z M17.153,49H27.9l-1.81-19h-6.224L17.153,49z" fill="#00A651"/></g><g><path d="M16.02,51c-0.007,0-0.013-0.001-0.02,0H4c-0.277,0-0.542-0.115-0.732-0.318    c-0.189-0.203-0.285-0.476-0.266-0.753l2.769-39C5.809,10.405,6.244,10,6.769,10h7.385c0.534,0,0.974,0.419,0.999,0.953    l1.836,38.801c0.02,0.079,0.031,0.161,0.031,0.246C17.02,50.553,16.572,51,16.02,51z M5.074,49h9.878L13.2,12h-5.5L5.074,49z" fill="#00A651"/></g><g><path d="M58.5,59h-5c-0.276,0-0.5-0.224-0.5-0.5v-12c0-0.276,0.224-0.5,0.5-0.5h5c0.276,0,0.5,0.224,0.5,0.5v12    C59,58.776,58.776,59,58.5,59z M54,58h4V47h-4V58z" fill="#92278F"/></g><g><path d="M49.5,59h-5c-0.276,0-0.5-0.224-0.5-0.5v-12c0-0.276,0.224-0.5,0.5-0.5h5c0.276,0,0.5,0.224,0.5,0.5v12    C50,58.776,49.776,59,49.5,59z M45,58h4V47h-4V58z" fill="#92278F"/></g><g><path d="M40.5,59h-5c-0.276,0-0.5-0.224-0.5-0.5v-12c0-0.276,0.224-0.5,0.5-0.5h5c0.276,0,0.5,0.224,0.5,0.5v12    C41,58.776,40.776,59,40.5,59z M36,58h4V47h-4V58z" fill="#92278F"/></g><path d="M23,25c0-2.987,2.258-6.077,6.037-6.077c2.076,0,3.115,1.396,3.951,2.519   c0.813,1.094,1.323,1.712,2.346,1.712c1.071,0,1.593-0.701,2.354-1.846c0.707-1.063,1.587-2.385,3.312-2.385c0.553,0,1,0.448,1,1   s-0.447,1-1,1c-0.592,0-0.956,0.455-1.646,1.493c-0.77,1.155-1.822,2.737-4.02,2.737c-2.076,0-3.115-1.396-3.951-2.519   c-0.813-1.094-1.323-1.712-2.346-1.712C26.415,20.923,25,23.023,25,25c0,0.552-0.447,1-1,1S23,25.552,23,25z" fill="#FFBE06"/><path d="M23,19.077C23,16.09,25.258,13,29.037,13c2.076,0,3.115,1.396,3.951,2.519   c0.813,1.094,1.323,1.712,2.346,1.712c1.071,0,1.593-0.701,2.354-1.846C38.396,14.322,39.275,13,41,13c0.553,0,1,0.447,1,1   s-0.447,1-1,1c-0.592,0-0.956,0.455-1.646,1.493c-0.77,1.155-1.822,2.737-4.02,2.737c-2.076,0-3.115-1.396-3.951-2.519   C30.569,15.618,30.06,15,29.037,15C26.415,15,25,17.101,25,19.077c0,0.552-0.447,1-1,1S23,19.629,23,19.077z" fill="#FFBE06"/><path d="M32,49H2c-0.552,0-1,0.447-1,1v13c0,0.553,0.448,1,1,1h30c0.552,0,1-0.447,1-1V50   C33,49.447,32.552,49,32,49z M31,51v7H3v-7H31z M3,62v-3h7.246h0.696h2.976h0.832h3.388c0.664-0.028,1.327-0.03,1.981,0h1.947   h1.912h4.882h1.578H31v3H3z" fill="#00A651"/></g><g id="Layer_3"/></svg>