<?xml version="1.0" ?><svg id="Layer_1" style="enable-background:new 0 0 64 64;" version="1.1" viewBox="0 0 64 64" xml:space="preserve" xmlns="http://www.w3.org/2000/svg" xmlns:xlink="http://www.w3.org/1999/xlink"><style type="text/css">
	.st0{fill:#A6A6A6;}
	.st1{fill:#A4A5A6;}
	.st2{fill:#7D828C;}
	.st3{fill:#5C6373;}
	.st4{fill:#DFA738;}
	.st5{fill:#BF7D2C;}
	.st6{fill:#6B5936;}
	.st7{fill:#A88C55;}
	.st8{fill:#4F4228;}
</style><g id="Layer_20"><path class="st0" d="M26,52v2c0,1.1,0.9,2,2,2h12v4H27c-2.8,0-5-2.2-5-5v-3"/><path class="st0" d="M22,12V8c0-1.1-0.9-2-2-2H8C6.9,6,6,6.9,6,8v54H2V7c0-2.8,2.2-5,5-5h14c2.8,0,5,2.2,5,5v5"/><path class="st0" d="M51,6c-0.7,0-1.4,0.2-2.1,0.6C49,6.4,49,6.2,49,6c0-2.2-1.8-4-4-4c-1,0-2,0.4-2.7,1.1c-1.1-1.3-3-1.4-4.2-0.4   c-1.3,1.1-1.4,3-0.4,4.2c0.9,1.1,2.4,1.4,3.7,0.7c0.9,2,3.2,2.9,5.2,2c0.2-0.1,0.3-0.2,0.5-0.2C47,9.6,47,9.8,47,10   c0,2.2,1.8,4,4,4s4-1.8,4-4S53.2,6,51,6z"/><rect class="st1" height="28" width="24" x="12" y="16"/><polygon class="st2" points="36,16 32,12 16,12 12,16  "/><polygon class="st2" points="36,44 32,48 16,48 12,44  "/><rect class="st3" height="4" width="8" x="20" y="48"/><circle class="st4" cx="24" cy="30" r="8"/><path class="st5" d="M20.5,29.9c-0.7,0.9-0.7,2.2-0.1,3.1c1.3,2,4,2.5,6,1.2c0.5-0.3,0.9-0.7,1.2-1.2c0.6-1,0.5-2.2-0.1-3.1L24,25   L20.5,29.9z"/><rect class="st6" height="8" width="22" x="39" y="52"/><rect class="st7" height="36" width="10" x="45" y="16"/><rect class="st6" height="6" width="10" x="45" y="28"/><rect class="st6" height="6" width="10" x="45" y="40"/><polygon class="st8" points="45,45.1 45,46 47.3,46 55,40.9 55,40 52.7,40  "/><polygon class="st8" points="45,33.1 45,34 47.3,34 55,28.9 55,28 52.7,28  "/><rect class="st6" height="4" width="10" x="45" y="16"/><polyline class="st8" points="39,56 39,60 61,60 61,56 39,56  "/></g></svg>