<?xml version="1.0" ?><!DOCTYPE svg  PUBLIC '-//W3C//DTD SVG 1.1//EN'  'http://www.w3.org/Graphics/SVG/1.1/DTD/svg11.dtd'><svg enable-background="new 0 0 32 32" version="1.1" viewBox="0 0 32 32" xml:space="preserve" xmlns="http://www.w3.org/2000/svg" xmlns:xlink="http://www.w3.org/1999/xlink"><g id="Energy20"/><g id="Energy19"/><g id="Energy18"/><g id="Energy17"/><g id="Energy16"><g><path d="M22,12H10c-0.5522,0-1-0.4473-1-1V6c0-0.5527,0.4478-1,1-1h12c0.5522,0,1,0.4473,1,1v5    C23,11.5527,22.5522,12,22,12z M11,10h10V7H11V10z" fill="#FFB841"/></g><g><path d="M27,4c0,1.65-1.35,3-3,3H8C6.35,7,5,5.65,5,4c0-1.65,1.35-3,3-3h16C25.65,1,27,2.35,27,4z" fill="#2FA3D5"/></g><g><path d="M27,15v11c0,0.55-0.45,1-1,1H6c-0.55,0-1-0.45-1-1V15c0-2.76,2.24-5,5-5h12C24.76,10,27,12.24,27,15z" fill="#2FA3D5"/></g><g><path d="M31,28c0,1.65-1.35,3-3,3H4c-1.65,0-3-1.35-3-3c0-1.65,1.35-3,3-3h24C29.65,25,31,26.35,31,28z" fill="#1777BA"/></g><g><path d="M19,19.64c0,1.85-1.35,3.36-3,3.36s-3-1.51-3-3.36c0-1.59,1.87-3.85,2.24-4.29c0.38-0.44,1.14-0.44,1.52,0    C17.13,15.79,19,18.05,19,19.64z" fill="#FFFFFF"/></g></g><g id="Energy15"/><g id="Energy14"/><g id="Energy13"/><g id="Energy12"/><g id="Energy11"/><g id="Energy10"/><g id="Energy09"/><g id="Energy08"/><g id="Energy07"/><g id="Energy06"/><g id="Energy05"/><g id="Energy04"/><g id="Energy03"/><g id="Energy02"/><g id="Energy01"/></svg>