<?xml version="1.0" ?><svg id="Layer_1" style="enable-background:new 0 0 64 64;" version="1.1" viewBox="0 0 64 64" xml:space="preserve" xmlns="http://www.w3.org/2000/svg" xmlns:xlink="http://www.w3.org/1999/xlink"><style type="text/css">
	.st0{fill:#9F3A37;}
	.st1{fill:#5C6373;}
	.st2{fill:#DC8729;}
	.st3{fill:#CB5940;}
	.st4{fill:#6B5936;}
</style><g id="Layer_6"><polyline class="st0" points="26,24 26,20 14,20 14,24  "/><rect class="st0" height="26" width="12" x="14" y="28"/><path class="st1" d="M17,17c-1.7,0-3-1.3-3-3c0-1.3,0.9-2.5,2.2-2.9C16.1,10.8,16,10.4,16,10c0-1.9,1.3-3.5,3.1-3.9   c-0.6-2.1,0.6-4.3,2.8-4.9c1.4-0.4,2.9,0,3.9,1c2.1-1.8,5.3-1.5,7,0.6c1.8,2.1,1.5,5.3-0.6,7c-0.9,0.8-2.1,1.2-3.3,1.2   c-0.5,2.1-2.7,3.4-4.9,2.9c-0.1,0-0.3-0.1-0.4-0.1l0.7-1.9C24.5,12,24.8,12,25,12c1.1,0,2-0.9,2-2l0,0c0,0,0-0.1,0-0.1   c0-0.6,0.4-1,1-1c0.1,0,0.2,0,0.3,0C28.5,9,28.7,9,29,9c1.7,0,3-1.3,3-3s-1.3-3-3-3c-1,0-1.9,0.5-2.5,1.3c-0.2,0.3-0.5,0.5-0.9,0.4   c-0.4,0-0.7-0.2-0.8-0.6C24.5,3.5,23.8,3,23,3c-1.1,0-2,0.9-2,2c0,0.5,0.2,1.1,0.6,1.4c0.4,0.4,0.4,1,0,1.4c-0.3,0.3-0.7,0.4-1,0.3   c-1-0.4-2.1,0.2-2.5,1.2C18,9.5,18,9.8,18,10c0,0.6,0.3,1.2,0.7,1.5c0.3,0.2,0.4,0.6,0.3,1c0,0,0,0.1,0,0.1   c-0.1,0.3-0.3,0.6-0.6,0.7c-0.3,0.1-0.6,0.1-0.9-0.1C17.4,13.1,17.2,13,17,13c-0.6,0-1,0.4-1,1s0.4,1,1,1V17z"/><path class="st1" d="M37,25c-1.7,0-3-1.3-3-3c0-1.3,0.9-2.5,2.2-2.9C36.1,18.8,36,18.4,36,18c0-1.9,1.3-3.5,3.2-3.9   c-0.6-2.1,0.6-4.3,2.8-4.9c1.4-0.4,2.9,0,3.9,1c2.1-1.8,5.3-1.5,7,0.6c1.8,2.1,1.5,5.3-0.6,7c-0.9,0.8-2.1,1.2-3.3,1.2   c-0.5,2.1-2.7,3.4-4.9,2.9c-0.1,0-0.3-0.1-0.4-0.1l0.7-1.9C44.5,20,44.8,20,45,20c1.1,0,2-0.9,2-2l0,0c0,0,0-0.1,0-0.1   c0-0.6,0.4-1,1-1c0.1,0,0.2,0,0.3,0C48.5,17,48.7,17,49,17c1.7,0,3-1.3,3-3s-1.3-3-3-3c-1,0-1.9,0.5-2.5,1.3   c-0.2,0.3-0.5,0.5-0.9,0.4c-0.4,0-0.7-0.2-0.8-0.6c-0.3-0.7-1-1.2-1.8-1.2c-1.1,0-2,0.9-2,2c0,0.5,0.2,1.1,0.6,1.4   c0.4,0.4,0.4,1,0,1.4c-0.3,0.3-0.7,0.4-1,0.3c-1-0.4-2.1,0.2-2.5,1.2C38,17.5,38,17.8,38,18c0,0.6,0.3,1.2,0.7,1.5   c0.3,0.2,0.4,0.6,0.3,1c0,0,0,0.1,0,0.1c-0.1,0.3-0.3,0.6-0.6,0.7c-0.3,0.1-0.6,0.1-0.9-0.1C37.4,21.1,37.2,21,37,21   c-0.6,0-1,0.4-1,1s0.4,1,1,1V25z"/><rect class="st2" height="4" width="20" x="10" y="24"/><rect class="st2" height="4" width="20" x="10" y="54"/><polyline class="st0" points="50,32 50,28 38,28 38,32  "/><rect class="st2" height="4" width="20" x="34" y="54"/><rect class="st2" height="4" width="20" x="34" y="32"/><rect class="st0" height="18" width="12" x="38" y="36"/><rect class="st3" height="26" width="4" x="14" y="28"/><rect class="st3" height="18" width="4" x="38" y="36"/><rect class="st4" height="4" width="60" x="2" y="58"/></g></svg>